<?xml version="1.0" encoding="utf-8"?>
<!-- Generator: Adobe Illustrator 23.0.4, SVG Export Plug-In . SVG Version: 6.00 Build 0)  -->
<svg version="1.1" id="Layer_1" xmlns="http://www.w3.org/2000/svg" xmlns:xlink="http://www.w3.org/1999/xlink" x="0px" y="0px"
	 viewBox="0 0 600 400" style="enable-background:new 0 0 600 400;" xml:space="preserve">
<style type="text/css">
	.st0{fill:#BE8764;}
	.st1{fill:#D18969;}
	.st2{fill:#E18B96;}
	.st3{fill:#00A698;}
	.st4{fill:#96694B;}
	.st5{fill:#7F5E47;}
	.st6{fill:#A0384F;}
	.st7{fill:#D1435B;}
	.st8{fill:#BA6B4D;}
	.st9{opacity:0.5;fill:#A82C47;}
	.st10{fill:#E5A389;}
	.st11{opacity:0.5;fill:#BA6B4D;}
	.st12{fill:#007264;}
	.st13{fill:#73CEC6;}
	.st14{fill:#D8B59C;}
	.st15{fill:#FFAB95;}
	.st16{fill:#F6BA5B;}
	.st17{fill:#FFC6BB;}
	.st18{fill:#FFEBD0;}
	.st19{fill:#A5856D;}
	.st20{opacity:0.7;fill:#D8B59C;}
	.st21{fill:#FFFFFF;}
	.st22{opacity:0.7;fill:#007264;}
	.st23{fill:#FFDAA4;}
	.st24{opacity:0.4;fill:#E0A28C;}
	.st25{fill:none;stroke:#FFFFFF;stroke-width:1.2051;stroke-linecap:round;stroke-linejoin:round;stroke-miterlimit:10;}
	.st26{fill:#E1AA82;}
	.st27{fill:#444560;}
	.st28{fill:#FFB54D;}
	.st29{opacity:0.35;fill:#E18B96;}
</style>
<g>
	<path class="st0" d="M137.9,301.5c0,0-1.6,3.3-2.6,5.3c-1.1,1.9-3.5,5.4-3.5,5.4s14.7-0.5,14.6-2.5c-0.2-1.9-0.4-6.8-0.4-6.8
		l-1.3-3.6l-0.4-3.7l-5.8,1.6"/>
	<path class="st1" d="M175,303.8v3c0,0,14-1.1,13.6-1.5c-0.4-0.4-4-2.8-4-2.8"/>
	<path class="st2" d="M140.3,181.5c0,0-1.4,1.2-1.3,2.6c0.2,1.4,3.3,15.6,3.2,17.2s2,4.8,2.3,5c0.3,0.2,12.1,2.9,12.5,3.2
		s19.1,0.5,19.1,0.5s15.2-27,12-26.8c-0.6,0-15.2,2.1-15.2,2.1"/>
	<path class="st3" d="M54.9,327.2c0,0,5.5-8-1.8-16.6c0,0,8.3,1.9,8.1,15.1"/>
	<path class="st3" d="M51.6,328.7c0,0-6.1-4.2-6.3-14.2c0,0-1.7,3.6-1.7,6.7c0,0-2.4-6.1,0-13.5c0,0-5,10.5-1.8,22.2"/>
	<path class="st4" d="M118.3,230.9c0,0-0.7,2.3-1.5,3.1c-0.8,0.8-1.6,1.6-2.5,1.8c-0.9,0.2-1.2,0.3-1.9,0.6s-1.7,3.2-1.9,3.3
		c-0.2,0.1-1,0.3-1,0c-0.1-0.3,0-0.8,0-0.8s-0.6,0.4-0.8,0.7c-0.2,0.3-0.5,1.1-0.7,1.2c-0.2,0.1-1-0.3-1-0.5s0.4-1.8,0.4-1.8
		s-0.8,0.5-1.2,0.7c-0.4,0.2-0.9,1.5-1.1,1.6s-1-0.5-1-0.9c0-0.4,0.6-1.9,0.6-1.9s-1.1,0.2-1.3,0.3c-0.3,0.1,0-1,0-1.3
		s1.7-1.9,2.3-2c0.6-0.1,2.1-1.2,2.5-1.3c0.4-0.2,1.4-0.7,1.4-0.7"/>
	<path class="st5" d="M196.6,198.1c0,0,2.2-5.5,4.6-6.6c2.4-1.1,6.3-0.4,6.6,0s0.2,0.6-0.4,0.8s-2.9-0.3-4.8,0.7
		c-1.9,1-4.1,5.9-4.1,5.9"/>
	<path class="st0" d="M139.7,183.3c0,0-6.6,7.3-7.1,9c-0.6,1.8-2.2,7.4-2.5,7.7c-0.3,0.3-1.3,3.9-2.1,4.9c-0.8,1-2.8,5.3-4,6.5
		s-7.9,14.7-8.3,15.3c-0.4,0.6-1.5,2.3-1.5,3c0,0.7,2.4,2.6,3.8,2.3c1.3-0.3,2.3-2.5,4.2-3.4c1.9-0.9,6.7-9.5,8.8-11
		c2.1-1.5,4.8-6.7,4.8-6.7s0.2-0.8,1-1.2c0.8-0.4,1.9-1.8,2.2-2.5c0.9-1.8,1.5-1.8,2.1-2.3c0.6-0.5,1.3-0.5,3.8-2.7
		c2.5-2.2,5.9-9.6,5.9-9.6l0.7-8.5"/>
	<path class="st4" d="M205.2,205.9c0,0-4.3,8-5.6,10.1c-1.3,2.1-2.4,4.6-5.2,6.6c-2.9,2-5,2.6-5.9,2.2c0,0-1.2,0.1-1.9-0.6
		s-3.7-6.2-4-7s-3.2-12.1-3.2-12.4s2.9-13.9,3.1-14.6c0.1-0.7,1.2-2.6,2.9-2.7s4.6,2.9,4.6,2.9s2.6,10.9,2.4,12.6
		c-0.2,1.8,1.1,7.2,1.1,7.2l5.1-5.8"/>
	<path class="st1" d="M152.9,124.5"/>
	<path class="st6" d="M189.8,255.3c0,0,0.7,1.4-0.7,4.5c-1.4,3-1.1,6.2-5.7,6.1c-4.7-0.2-12.2,0.6-13.9-4.8s6.6-12.1,6.6-12.1"/>
	<path class="st0" d="M158.9,261.1c0,0-1.5,5.4-2,6.2c-0.5,0.8-0.2,4-1.2,5.9c-1,1.8-6.4,19.5-7.2,22.2c-0.8,2.7-2.6,7.6-2.6,7.6
		s-2.3-1-4.6-1.4c-2.4-0.4-3.4,0-3.4,0s3-24.1,2.9-27.8s-0.3-6.7,0.7-8.1s1.7-1.6,1.5-3.2c-0.2-1.5-0.5-3.7,0-5.5"/>
	<path class="st4" d="M142.9,263.1c1.9,0.8,3.8,1.5,4.5,1.4c1.5-0.3,4-0.1,5.9,0c0.9,0.1,2.4,1.2,3.8,2.3c0.6-1.6,1.7-5.6,1.7-5.6
		l-15.9-4.1c-0.5,1.8-0.2,4,0,5.5C142.9,262.7,142.9,262.9,142.9,263.1z"/>
	<path class="st0" d="M186.8,252.7c0,0,3.2,6.8,3,9.8c-0.2,3-5,26-5.2,29.2c-0.2,3.2,0.5,9.9,0,10.8s-5.5,1.8-6.6,1
		c-1.1-0.8-3.1,1.6-2.9,0.3c0.2-1.3-0.7-3.7,0-5.2c0.7-1.5,0.9-2.7,1-5c0.1-2.4-1.9-18.3-2.3-23.7c-0.4-5.4,0.3-6.1,0-8.2
		c-0.3-2.2-1.9-5.2-1.8-6.6"/>
	<path class="st4" d="M173.7,265.1c0.9-0.4,2.1-1.1,3-2c1.7-1.8,4.2-4.7,6.8-4.7c1.8,0,4.3-0.2,6,1.4c-0.8-3.2-2.7-7.1-2.7-7.1
		L172,255c-0.2,1.3,1.5,4.4,1.8,6.6C173.9,262.9,173.8,263.6,173.7,265.1z"/>
	<path class="st7" d="M183.9,227.9c0,0,0,3.5,0,4.4c0,0.9-0.5,0.8,0,1.7s0,2.7,0,2.7s5.2,16.5,5.9,18.5c0,0-3.7-0.9-6.4-0.9
		s-8,1.1-9.6,1.8c-1.7,0.8-3,1.8-3.4,2.4s-0.9,2.4-0.9,2.4s-2.1-6.2-2.2-7.7c-0.1-1.5-0.4-4.3-0.8-5.6c-0.5-1.2-2.1-1.4-2.1-1.4
		s-0.9,7.7-1.4,8.8c-0.5,1.1-1,4.8-1.7,5.9s-2.1,1.8-6.6,1.2c-4.5-0.6-7.1-3.2-10.1-3.8c-3.1-0.6-5.1,0.9-4.8-0.6
		c0.2-1.5,2.2-18.6,2.7-20.2c0.5-1.5,0.6-5.5,0.9-6.4s1.2-3.6,0.9-4.1c-0.3-0.5-0.5-1.5,0-2.6c0.5-1.1,1.8-2.6,1.7-3.2"/>
	<path class="st8" d="M139.7,184.1"/>
	<path class="st0" d="M149.8,190.5l-5.5,2.3c0,0-0.2,3,0,5c0.2,1.9,2.4,6.5,2.3,6.8l0.9,5.8l2.3,3.3l4.9-14.3"/>
	<path class="st0" d="M172.5,165.9c0,0,0.9,9.7,1,10.9c0.2,1.2,12.8,6.2,14,7.8c1.2,1.5,2.4,6,2.4,6s-7.2-1.4-12.1-0.9
		s-8.2,5.9-12.3,5.4c-4-0.5-8.6-6.9-11.3-8.1c-2.7-1.2-15.2-2.8-15.2-2.8s3.6-4.6,8.4-5.8c2.4-0.6,11.3-2.9,11.9-4.1
		c0.7-1.2,2.4-7.6,2-10.3"/>
	<path class="st4" d="M157.3,175.4c0,0-0.2,0-0.4,0.1c-1.7,0.4-8.2,2.1-10.5,3.2c-2.6,1.2-4.2,2.4-4.2,2.4s0,0,1,0.4
		c1,0.4,5.5-1.2,8-1.5s9-0.5,9-0.5s3-1.3,3.5-1.4c0.5-0.1,4.3,1.4,5.7,1.4c1.5,0,3.1-11.3,3.1-11.3s-3.7,3.6-5.3,2.1
		c-1.6-1.5-6.3-2.2-6.3-2.2s-1.2,5.4-2.3,6.2"/>
	<path class="st9" d="M153.4,254c0,0,4.6-4.1,5.1-5c0.5-0.9-2.7-4.4-3.4-5.2c-0.8-0.8-4.4-5.8-4.3-6.2s2.2-6.3,3-6.2
		c0.8,0.1,1.6,2,11.4,2.6s15-1.5,15-1.5l3.7-0.6c0-1.3,0-3.9,0-3.9l-38-6.5c0.1,0.6-1.1,2.1-1.7,3.2c-0.5,1.1-0.3,2.1,0,2.6
		c0.3,0.5-0.6,3.2-0.9,4.1c-0.3,0.9-0.5,4.9-0.9,6.4c-0.5,1.5-2.4,18.6-2.7,20.2c-0.2,1.5,1.8,0,4.8,0.6c2.4,0.5,4.4,2.1,7.3,3.1
		L153.4,254z"/>
	<path class="st10" d="M164,161.9"/>
	<path class="st10" d="M158.9,161.5"/>
	<path class="st1" d="M169.4,156.8"/>
	<path class="st0" d="M184,188.7c0,0,1.9,9.1,1.9,12c0,2.9-2.6,7.3-2.7,8.2c-0.1,0.9,0.4,6.4,0.7,8.7c0.3,2.4-0.1,4,0,5.9
		c0.1,1.9,0.7,4.2,0,4.4c-0.7,0.2-3.5,1.6-8.3,2.7c-4.8,1.1-12.5,0.8-16.8-0.6c-4.3-1.3-8.1-3.9-10.5-4.7c-2.5-0.8-3.8-3.4-3.7-3.8
		c0.1-0.4,1.2-9.6,2-11.5c0.8-1.9,0.8-5.4,0.8-6.3s-0.8-9.8-0.4-12.8c0.3-3,1.8-7.7,1.8-7.7"/>
	<path class="st0" d="M206.6,199c0,0-2.4-4.7-3.6-5.6c-1.2-1-6.3-2.8-7.1-3c-0.8-0.1-1.2,1.7-0.8,2c0.4,0.3,3.8,2,4.5,2.3
		s2.2,2.4,2.2,2.4l-4.3-2.4c0,0-4.7-1.4-4.9-0.8s-0.4,1.3,0,1.6c0.4,0.3,5.3,2,5.6,2.4c0.3,0.4,1.2,1.1,1.2,1.1s-3.2-1.2-3.8-1.1
		c-0.6,0.2-1,2.2-1,2.5s-0.6,0.9-0.3,1.6c0.2,0.7,0.4,2.1,1.1,2.3s1.3,1.5,1.9,1.7c0.6,0.1,1,0,1,0s2.9,3,4.1,2.3s2.4-1.8,3-3.2
		C206.3,203.8,206.9,199.6,206.6,199z"/>
	<g>
		<g>
			<path class="st4" d="M201.9,205.8c-0.3-0.5-2.5-1.9-2.5-1.9h1.4c0,0-0.9-2.1-1.2-2.3c-0.3-0.2,0-2.6,0-2.6s-3.2-1.2-3.8-1.1
				c-0.6,0.2-1,2.2-1,2.5c0,0.3-0.6,0.9-0.3,1.6c0.2,0.7,0.4,2.1,1.1,2.3c0.7,0.2,1.3,1.5,1.9,1.7c0.6,0.1,1,0,1,0s2.9,3,4.1,2.3
				C202.3,207.4,202.1,206.1,201.9,205.8z"/>
		</g>
	</g>
	<path class="st0" d="M194.7,200.5c0,0,2.7,0.9,2.9,0.9c0.2,0-2.1-1.5-2.6-1.6L194.7,200.5z"/>
	<path class="st0" d="M150.5,187.2c0,0-4.2,4.4-4.1,7.1c0.1,2.7,2.5,7.7,3,7.8"/>
	<path class="st0" d="M190.2,192.3c-0.9-3.9-2.3-7-2.3-7s-0.4,1.2-1,1.8c-0.6,0.6-2.7,2.5-2.7,2.5l0.5,2.6"/>
	<path class="st0" d="M198.4,206.1l4.1,2.3C202.5,208.4,200.8,209.7,198.4,206.1z"/>
	<path class="st4" d="M144.3,202.6c-0.2-1.8,1.6-3.5,3.1-4.4c0.3-0.2,0.7-0.3,1-0.3c1.4,0,2.1,4,5.8,5.3c3.7,1.3,8.9,0.6,8.9,0.6
		s-1.8,1.9-4.4,2.3s-3.9,1.2-6.9,5.6c-3,4.4-3.3,8-3.4,9.1c-0.1,1.1-0.1,4.6-0.1,4.6s-4.2-0.6-3.7-3.8c0.5-3.2,1.7-9.4,1.3-13
		C145.7,206.6,144.5,204.3,144.3,202.6z"/>
	<path class="st11" d="M183.3,208.5c0,0-3.7-3.9-4-4.4s1.6,0.3,3.4,0c1.8-0.3,3.2-0.9,3.2-0.9"/>
	<path class="st11" d="M156.9,200.4c0,0,0.7,1.8,3.1,1.7c2.4-0.1,1.6-1.8,0.9-2.7C160.1,198.5,156.8,198.7,156.9,200.4z"/>
	<path class="st11" d="M180.2,201.3c0,0,0.7,1.8,3.1,1.7c2.4-0.1,1.6-1.8,0.9-2.7C183.4,199.4,180.2,199.6,180.2,201.3z"/>
	<path class="st4" d="M169.2,225c0.1-0.2,1.6-1.2,3.4-1.4c1.8-0.2,3.6,1.8,3.6,1.8s-1.2-0.7-3.6-0.4S169.2,225,169.2,225z"/>
	<path class="st3" d="M413.8,112.9c-0.5,0.5-3.8,7.6-4.7,8.5c-0.8,0.8,2.9,2.7,2.9,2.7s-4.2,2.8-4.9,3.7c-0.7,0.9-2,11.8-2,11.8
		l2.2,2.7l-2.8,1.2l1.7,12c0,0,11.1-9.4,11-10s-0.8-2.3-0.8-2.3s2.9-0.6,3.6-2s4.7-7.8,4.7-7.8l1.6-4.8"/>
	<path class="st12" d="M460.9,123.3c0.4,1.1,1.4,10.1,1.3,10.9c-0.1,0.8-4.6-0.6-4.6-0.6s0.5,4.1,0,7.5c-0.5,3.4-3,10-2.8,10.6
		c0.3,0.6-1.7,3.4-1.7,3.4s-9.9-23.9-10-23.8c0,0,3.3-13.8,3.3-13.8"/>
	<path class="st3" d="M438.5,132.5c0,0-3.3,0.5-4.1,2c-0.8,1.5-0.9,2.7-0.9,2.7s-1-0.4-2.1-2.5c-1.1-2.1-0.5-3.2-0.5-3.2"/>
	<path class="st3" d="M445.9,125.9c0,0,2-0.8,3.5,0.1c1.5,0.9,1.8,4,1.8,4s-2.1-0.9-2.8-0.9c-0.7,0,0.4,3-2.8,2.7s-4.2,0.1-4.2,0.1
		l-1.4-1.7"/>
	<path class="st13" d="M433.2,67.4c0,0-12.6-17.2-26.3-26.5c-13.8-9.3-21.8-10.5-21.8-10.5s-4.8,4-7.4,3.8c-2.6-0.2,1.7-2-1.8-3.6
		c-3.5-1.7-15.5,3.5-20.2,6.2c-4.7,2.7-16.2,14.1-15.9,15.3c0.4,1.1,11.6-1,15-1.6c3.4-0.5,13.5-6.9,14.3-4.9c0.8,2-2.6,4.8-0.2,5.4
		c2.4,0.5,11.2,3.4,11.2,3.4s12.7-2.7,12.4-0.5c-0.2,1.4-1.6,1.9-1.8,2.8l0,0l0,0c-0.1,0.3,0,0.5,0.2,0.9c0.9,3.2,4.3,14.4,11,19.3
		c3.1,2.3,6.4,3.8,9.2,4.8c5.6,7.9,12,14.1,12,14.1L433.2,67.4z"/>
	<path class="st3" d="M424.8,57.1c0,0-6.8-3.2-11.3-6.3c-4.6-3.1-25.2-14.6-26.1-13.8c-0.9,0.8,3.3,5-0.2,3.5
		c-3.5-1.5-15.7-3.5-20.1-3.3c-3.2,0.2-14.2,4.4-20.3,6.6c-0.6,0.6-1.2,1.1-1.7,1.6c-3.1,3.1-5.6,5.9-5.4,6.4c0.4,1.1,11.6-1,15-1.6
		c3.4-0.5,13.5-6.9,14.3-4.9c0.8,2-2.6,4.8-0.2,5.4c2.4,0.5,11.2,3.4,11.2,3.4s12.7-2.7,12.4-0.5c-0.2,1.4-1.6,1.9-1.8,2.8
		c-0.1,0.3,0,0.5,0.2,0.9c0.9,3.2,4.3,14.4,11,19.3c3.1,2.3,6.4,3.8,9.2,4.8c5.6,7.9,12,14.1,12,14.1l10-28.4
		C433.2,67.4,429.9,62.8,424.8,57.1z"/>
	<path class="st14" d="M229.9,229.5c0,0,101.2,36.6,204.2-12.1c0,0-34.7,33.5-54.9,39.3s-102.9,0-102.9,0"/>
	<path class="st3" d="M79.5,320.5c0,0-4-8.1-9.7-9.9c0,0,10.7-0.8,15,8.3"/>
	<path class="st15" d="M434,128.9c0,0,57.6,122.2,47.6,189.9l25.8,2.3c0,0-7.4-78.1-66.8-199.8"/>
	<path class="st3" d="M82.6,320.5c0,0-5.1-6.6-1-12.2c4.2-5.6,0.2-17.4,0.2-17.4s8.5,9.9,7.6,17.4c-0.9,7.5,5.3,14.2,5.3,14.2"/>
	<path class="st3" d="M83.4,314.2c0,0,10.1-4.4,12.7-10.3c0,0,1,8.1-6.3,13.3"/>
	<path class="st3" d="M477.8,315.1c0,0,1.6-6.2-12.4-12.7c0,0,18.2,0.8,21.4,13.6"/>
	<path class="st3" d="M484,316.4c0,0,3.6-12.2,18.9-19.5c0,0-11.7,15.5-9.9,24.7"/>
	<path class="st12" d="M491.1,316.8c0,0,12-5.4,16.1-6.1s10.9-8.3,10.9-8.3s-1.8,9.3-6.2,12c-4.4,2.7-3.7,7.9-3.7,7.9"/>
	<path class="st16" d="M177.1,304.3c-0.2,0-0.3,0.1-0.3,0.1S176.9,304.4,177.1,304.3C177.1,304.4,177.1,304.3,177.1,304.3z"/>
	<path class="st2" d="M469.7,187.1c-7.9-20.1-17.5-42.1-29-65.7l-6.6,7.6c0,0,13.6,28.9,26.5,66.4
		C464.1,193.1,467.1,190.2,469.7,187.1z"/>
	<path class="st17" d="M470.3,226.5c0,0,4.5-4.5,11.9-5.7l2.8,8.3l-13,3.5"/>
	<path class="st17" d="M477.4,255.3c0,0,9-3.7,15.1-2.2l3,10.6l-15.9,3.2"/>
	<path class="st15" d="M454.7,179.1c0,0,4-5.3,9.3-6.2l2.4,6.2c0,0-7.9,1.5-9.5,6.2"/>
	<path class="st12" d="M444.8,130.1c0,0,6-6.7,8.2-15.4c2.3-8.7-2.8-20.6-2.8-20.6l-1.1,3.6c0,0-1.4-8.7-12.9-12
		c-11.5-3.3-20.5-11.2-20.5-11.2s-3.5,7.5-4.4,13.5c-0.9,6,3.2,14.4,3.2,14.4l-7.3-3.1c0,0,1.7,18.1,10.7,27.6
		C426.9,136.3,442.9,132.5,444.8,130.1z"/>
	<circle class="st18" cx="497.4" cy="51.2" r="17.5"/>
	<path class="st19" d="M477.7,202.7c-0.5,0.3-15.2,3.6-15.5,4.8c-0.3,1.2,0.4,1.5,0.9,1.7c0.5,0.2,15.6-3.9,15.9-4.5
		c0.3-0.6-0.8-1.8-0.8-1.8"/>
	<path class="st19" d="M473.4,237.4c0,0,17.9,9.9,18.7,10.1s1.2,1.2,1,1.9s-1.1,1.5-1.1,1.5l-0.9-2.3c0,0-13.3-6.7-14.8-7.4
		c-1.5-0.7-2.4-1.4-2.4-1.4l0.4,1.7c0,0-1.9-1.5-2.3-2.4c-0.4-0.9,0.8-2.5,0.8-2.5"/>
	<path class="st19" d="M477.8,257.4c0,0-0.6,6,0.6,7.8c1.2,1.8,16.8,10.9,18.9,12s3.9,2.3,4.2,2.9c0.3,0.5-1.3,1.9-1.3,1.9l0.5,2.3
		c0,0,2.9-2.8,2.9-4c0-1.2-1.9-2.5-2.7-3c-0.8-0.5-20.9-11.7-21.5-14C478.8,261,477.8,257.4,477.8,257.4z"/>
	<path class="st19" d="M482.6,292.8c0,0-2.9,2.8-3.6,3.8c-0.8,1.1,0.4,2,0.6,1.9s1.4-1.4,2.3-2c0.9-0.6,0.9-1.1,0.9-1.1"/>
	<path class="st18" d="M434.1,217.3c0,0-0.6,36.5-74.5,56.2s-129.7-44.1-129.7-44.1s63.8,29.3,118.6,20.8S434.1,217.3,434.1,217.3z"
		/>
	<path class="st20" d="M275.3,254c-22.7-4.4-44.8-24.3-44.8-24.3L275.3,254z"/>
	<path class="st3" d="M408.3,75.6c0,0-22.1,3.5-30,12.9c-7.9,9.4-13.8,21.4-13.8,21.4s3.3,3,2.5,4.6c-0.8,1.5-6.3,4.5-7,7.7
		c-0.7,3.2-3.4,24.4-3.4,25.7s-0.6,7.1,0.6,7.7s0,1.4,0.1,3.1s4.6,25.6,6.6,26.4c2,0.8,10.8-23.5,12.7-25.8c1.9-2.3-0.3-9.3,0.8-8.8
		s8.9-0.9,9.8-4.3c0.8-3.4,0.1-5,3.4-9.7c3.3-4.6,18.9-21.6,22.4-26.9c3.5-5.3,13.4-10.2,14.7-16.5S416.3,77.7,408.3,75.6z"/>
	<path class="st13" d="M409.7,77.2c-2.3-0.1-18.1-9.6-30.3-9.9c-12.2-0.3-20.1,0.7-20.1,3.6c0,2.8-5.1,2.9-6.5,1.5
		c-1.4-1.4-13.4,7.1-15.9,10.2s-13.6,23.7-14,24.7c-0.4,1,20-10.3,20.9-10.8c0.9-0.6,4.9-6.6,4.9-6.6l5.6,3.9c0,0,14.5-5.6,19.3-5.5
		c4.7,0.1,19.7,4.8,19.7,4.8"/>
	<path class="st13" d="M424.5,68c1.6-1.1,2.6-21.4,5.4-22.3s5.5-0.9,5.4-1.8c-0.1-0.9-4.1-7.2-4.1-7.2s0.8-1.9,1.1-6.4
		s4.7-7.7,3.9-12.9c-0.9-5.2-3-10.4-3-10.4s16.9,14.5,20.6,25.9c3.7,11.4-3.5,17-3.9,17.6c-0.3,0.6,3,5.7,3,6.7c0,1-4,3.2-4,3.2
		s4.4,9.8,1.3,15.7c-3.1,5.9-8.6,10.1-8.6,10.1"/>
	<path class="st13" d="M444.6,70c0,0,12.4-9.8,33-1.7c20.6,8.1,36,15.2,38.9,20s9.2,17.1,9.1,25.4s-3.1,19.1-3.1,19.1l-12.3-16.4
		c0,0-12.1-8.3-20.1-12.6c-7.9-4.3-26.3-9.8-26.3-9.8l-22.9,3.1l-5.8,0"/>
	<path class="st3" d="M379.4,67.3c-2.3-0.1-4.4-0.1-6.4,0c2.7,1,5.4,2.1,6.2,2.5c1.7,0.9-6.4,2-6.4,2l8.8,2.8c0,0-16.2,0.7-26.4,4.2
		c-10.2,3.5-18.5,10.3-18.5,10.3l-5.9,3.5c-3.7,6.6-7.7,14.1-7.9,14.7c-0.4,1,20-10.3,20.9-10.8c0.9-0.6,4.9-6.6,4.9-6.6l5.6,3.9
		c0,0,14.5-5.6,19.3-5.5c4.7,0.1,19.7,4.8,19.7,4.8l16.4-15.9C407.4,77.1,391.6,67.6,379.4,67.3z"/>
	<path class="st3" d="M446.4,85.5c0.7,0.3,25.9,16,34.5,21.6c8.7,5.6,3.5,8.1,4.1,9.7c0.6,1.6,5.5,0.3,8.1,3.2s10.7,7.4,15,18.9
		c4.4,11.5,0.3,36.1,0.3,36.1s-8.4-16.5-21.4-27.8c-13.1-11.3-8.9-8.4-23.5-16.9c-14.6-8.5-14.7-7.3-18.2-8.3
		c-3.5-1-9.6-1.9-9.6-1.9s-2.6-6.8-3.6-9.9c-1-3.1,1.5-11.7,1.5-11.7"/>
	<path class="st3" d="M423.7,62.1c0,0-11.6,4.9-13,10.5S405.5,91.3,417,95c11.5,3.7,23.7,4.2,23.9,2.3s5.7-17.5,5.7-17.5"/>
	<path class="st3" d="M417.2,96.6c0,0,9.3,8,11,7.3s1.5-3.9,2.8-3.4c1.2,0.5,4.7,4,7,3.1s8-8.2,8-8.2"/>
	<path class="st13" d="M366.8,139.4c0,0,7-21.1,10.6-27.5c3.7-6.4,10.2-15,10.2-15s-7.5,14.2-9.1,17.3
		C376.8,117.2,366.8,139.4,366.8,139.4z"/>
	<path class="st3" d="M448.9,60.3c0,0,4-2.2,4-3.2c0-0.9-2.5-4.9-2.9-6.3c-1.7-1.8-3.6-4.4-3.7-6.2c-0.2-2.8-2.3-13.4-2.3-13.4
		s0.5,11.2-0.3,12.2c-0.8,1-2.5-2.4-6.7-5.4c-1.4-1-3.1-3.2-4.8-5.8c-0.4,2.9-0.9,4.2-0.9,4.2s4,6.3,4.1,7.2
		c0.1,0.9-2.7,0.9-5.4,1.8c-2.7,0.9-3.7,21.2-5.4,22.3l17.2,18.1c0,0,5.5-4.2,8.6-10.1C453.3,70.2,448.9,60.3,448.9,60.3z"/>
	<path class="st3" d="M524.9,108.2c-1.7-1.1-3.3-2.5-4.2-3.8c-2.6-3.7-11.9-12.4-11.4-11.7c0.5,0.7,2.8,7.5,2,6.7
		c-0.8-0.8-15.5-17.2-23.1-20.5c-5.4-2.4-17.5-9.7-24-13.7c-12.4-0.8-19.5,4.8-19.5,4.8l-9.5,27.1l5.8,0l22.9-3.1
		c0,0,18.4,5.5,26.3,9.8c7.9,4.3,20.1,12.6,20.1,12.6l12.3,16.4c0,0,3-10.8,3.1-19.1C525.5,112,525.3,110.1,524.9,108.2z"/>
	<path class="st13" d="M446.4,85.5c0.7,0.3,25.9,16,34.5,21.6c8.7,5.6,3.5,8.1,4.1,9.7c0.6,1.6,5.5,0.3,8.1,3.2s10.7,7.4,15,18.9
		c4.4,11.5,0.3,36.1,0.3,36.1s-8.4-16.5-21.4-27.8c-13.1-11.3-8.9-8.4-23.5-16.9c-14.6-8.5-14.7-7.3-18.2-8.3
		c-3.5-1-9.6-1.9-9.6-1.9s-2.6-6.8-3.6-9.9c-1-3.1,1.5-11.7,1.5-11.7"/>
	<path class="st3" d="M510,161c-2.5-2.1-15.5-26.5-16.8-28.5c-1.3-1.9-20.7-15.8-20.7-15.8l10.7,5.1c0,0-4.3-6.6-4.5-8.6
		c-0.2-1.4-3-7.2-4.8-10.6C463,95.7,447,85.7,446.4,85.5l-12.7,12.9c0,0-2.6,8.6-1.5,11.7s3.6,9.9,3.6,9.9s6.1,0.9,9.6,1.9
		c3.5,1,3.6-0.2,18.2,8.3c14.6,8.5,10.5,5.5,23.5,16.9c13.1,11.3,21.4,27.8,21.4,27.8S509.6,168.7,510,161C510,161,510,161,510,161z
		"/>
	<path class="st21" d="M471.5,137.2c0.6,0.1,4.1-1.9,4.9-2.6c0.8-0.8,0.2,3.3-0.7,4.9"/>
	<path class="st22" d="M426.6,88.4c0,0-4-6.4-12.3-10.4c0,0,7.5,4.1,9.7,1.7c1.6-1.7,0.2-7.3-0.7-10.4c-0.2-0.6,0.5-1,1-0.6
		c2,1.8,5.3,4.8,6.7,6.2c1.9,2,4.3,1.6,5,1c0.4-0.3,1.1-4,1.8-7.7c0.1-0.7,1.2-0.6,1.2,0.1c0.1,4.1,0.4,8.4,1.5,9
		c2.1,1.3,2.7,3.3,5.5,3.5c2.8,0.2,6-2.5,13.3-1.4c1.5,0.2,2.9,0.5,4.3,0.8c0.8,0.2,0.6,1.3-0.2,1.2c-2.3-0.3-4.6-0.5-6.4-0.4
		c-5.6,0.2-9.1,0.5-11.9,3c-2.8,2.5-4.6,2.4-3.6,3.9c1,1.5,9.6,6.5,14.5,10c1.9,1.4,4.1,3.5,6,5.5c0.5,0.6-0.2,1.4-0.8,0.9
		c-3.7-2.9-8.1-6.3-11.2-7.5c-6-2.5-13-3.9-14.3-4.6c-1.2-0.7-7.6,2-8.5,2.4c-0.1,0-0.2,0-0.2,0l-2.9-0.1"/>
	<path class="st21" d="M486,103.9c0,0-2.1-7.5-1-8.3c1.1-0.8,8,12.1,8,12.1"/>
	<path class="st21" d="M500.5,75.6c-1-0.2-11.7,0.5-10.2,1.7s14.4,1.5,14.4,1.5"/>
	<path class="st21" d="M404.1,124.6c0,0-10.7,1.7-10.7,2.9c0,1.3,7.1,2.3,7.1,2.3"/>
	<path class="st21" d="M363.6,93.5c0.3-0.9,2.1-7.2,3.5-7.6s2.8,5.4,2.8,5.4"/>
	<path class="st21" d="M388.8,62.2c0.8,0.3,8.1,0.3,9.4,1.9c1.3,1.6-6.3,3.8-6.3,3.8"/>
	<path class="st13" d="M386.2,87.7c6.7-2.5,15-3,15-3s-10.8,8.9-11.2,9.5c-0.4,0.6,13-7.2,15.9-7c2.9,0.2,6.4-0.6,10.6,1.6
		c2.6,1.3,6.3,5.7,8.7,8.8c1.2-1.4,2-2.9,2.4-4.5c1.4-6.3-11.3-15.2-19.3-17.4c0,0-22.1,3.5-30,12.9c-1.8,2.1-3.5,4.4-5,6.6
		C377.8,92.1,382.9,88.9,386.2,87.7z"/>
	<path class="st23" d="M46.8,329.9c-0.2,0.1-0.4,0.2-0.7,0.3c0,0,0.2,0,0.7,0C46.9,330.1,46.9,330,46.8,329.9z"/>
	<path class="st13" d="M432.4,104c0,0-1.5,3-1.3,5.5s3.8,10.4,4.7,10.5c0.9,0.1,11.3,2.5,11.3,2.5s-9.3-2.8-11-7.1
		S432.4,104,432.4,104z"/>
	<path class="st13" d="M393.2,38.8c0,0,7.3,7.8,11.3,12.8s10.1,14.7,10.1,14.7s-9.6-19.5-16.5-26"/>
	<path class="st13" d="M443.7,46.4c0,0-0.7,11.2-1.3,13c-0.6,1.8-3.4,9-3.4,9s6.5-6.8,6.5-10.5C445.5,54.1,443.7,46.4,443.7,46.4z"
		/>
	<path class="st13" d="M465.8,80.4c0,0,11.8,3.6,17.9,5.8c6.1,2.1,20.9,14,20.9,14s-17.7-11.1-25.4-13.7S465.8,80.4,465.8,80.4z"/>
	<path class="st13" d="M445,100c1.2,0.4,15.9,8.6,19.6,10.4c3.7,1.9,7.1,5.4,7.1,5.4s-12.1-4.2-16.7-7.1S445,100,445,100z"/>
	<path class="st24" d="M360.6,248.1c-7.3,6.9-16.3,14.6-22.3,16.8c-11.9,4.3-26.7,3.6-26.7,3.6s9.6,2.7,12.1,3.6
		c1.2,0.4-8.1,1.4-18.6,2.2c16.4,3.8,34.9,4.5,54.6-0.7c73.8-19.7,74.5-56.2,74.5-56.2S407.9,238.2,360.6,248.1z"/>
	<path class="st3" d="M419.4,107c0,0,0,9.2,2.9,14.3c2.9,5.2,11.3,8.8,11.3,8.8s-9.7-10-11-15.3s-2.1-11.3-2.1-11.3L419.4,107z"/>
	<path class="st5" d="M196.1,204.9c0,0,41.6,28.7,41.9,28.9c0.1,0.1-0.1,0.1-0.5,0.1c-1.3,0-2.5-0.4-3.6-1.1
		c-6.4-4.6-36.1-24.9-37.9-26.4c-1.2-1-1.3-2.9-1.3-2.9"/>
	<path class="st5" d="M202.3,192.3"/>
	<path class="st8" d="M145,200.4"/>
	<path class="st9" d="M166.8,246c0,0,1.8-4.2,3.1-5.4c1.3-1.2,3.9-2.4,3.9-2.4s-3.2,5.1-4,7.1s-1.3,7.3-1.3,7.3
		S166.6,247.8,166.8,246z"/>
	<path class="st25" d="M167.6,233.1c0,0,0.1,4.5-3.2,7c-3.3,2.5-7,2.1-8.6,3.2c-1.7,1.2-3.8,5.3-3.8,5.3"/>
	<path class="st25" d="M169.2,233.9c0,0,1.4,7.2-5.3,10.1"/>
	<path class="st0" d="M142.8,203.8c-0.6,0.3,6.4-5.8,6.6-6.8c0.8-4.5-3-2.7-3-2.7"/>
	<path class="st0" d="M184.2,189.7c0,0,1.2-0.2,2.7,0c1.5,0.2,3.7,4.1,3.7,4.1s-1.1-9-4.5-10.6"/>
	<path class="st0" d="M174.3,177.5c0.2,0.1,2.3,3.7,4,4.3s6,1.7,7.4,2.9s4,4.4,4,4.4s-0.8-4.3-3.1-5.6
		C184.4,182.4,174.3,177.5,174.3,177.5z"/>
	<path class="st0" d="M115,228c0,0-2.1,1.7-3,2.7c-0.9,1-3.3,1.6-4,2.2c-0.7,0.6-2.2,1.4-1.9,1.8c0.3,0.4,1,0.7,1.5,0.7
		s3-1.4,3.6-1.5s2.5,0.1,3.9-0.1c1.4-0.1,2.6-1.7,2.8-2.1c0.2-0.4,0.4-1.3,0.4-1.3s-0.8-0.3-0.8-0.5"/>
	<path class="st26" d="M144.5,267.6c0,0,1.5,4.7,3.8,5.7c2.4,1,4.4-0.7,5.4-1.5c1-0.7,0.9-1.7,0.9-1.7s-0.8,1.1-4.3,0.4
		C147,270,144.5,267.6,144.5,267.6z"/>
	<path class="st4" d="M135.6,210.3c0,0-0.8-1.6-2.4-2.6c-1.6-0.9-3-1.1-3-1.1s1.9,1.3,2.5,2.7c0.6,1.4,2.2,3.2,2.2,3.2s1-2,1.1-2.1
		C136.1,210.2,135.6,210.3,135.6,210.3z"/>
	<path class="st8" d="M168.3,184.9c0,0,1.1,0.9,1.8,2.3c0.7,1.4,1.4,2.6,1.4,2.6s0-2.3,0-3C171.5,186.2,168.3,184.9,168.3,184.9z"/>
	<path class="st10" d="M173.4,158.6"/>
	<path class="st0" d="M160,146.2c1.1-0.6,2.3-0.7,3.4-0.3c2.2,0.8,5.9,2.2,6.9,3.1c1.5,1.3,3,17.6,2.5,18.6c-0.6,1-7,7.7-14.4,8.7
		c-0.7,0.1-3.5-5.8-3.6-6s-0.9-7.1-1.2-7.6c-0.3-0.5-0.8-2.6-1.1-3.5c-0.4-0.9,0.7-7.8,2-9.3C155.3,148.9,158.2,147.2,160,146.2z"/>
	<path class="st26" d="M170.9,161c0,0,0.4-2.9,0.9-3.2s2-1.1,2.3-0.9c0.3,0.2,1,2.7,0.4,3.4c-0.6,0.6-1.5,1.3-1.5,1.3
		s-0.1,1.7-0.5,2c-0.5,0.3-0.9,0.5-1.3,0.2C170.9,163.4,170.9,161,170.9,161z"/>
	<path class="st4" d="M156.6,160.3c0,0,0.2,3.1-0.1,4.2s-0.9,1.6-0.9,1.6s1.7,1,2,1.5c0.3,0.5,0.2,3.3,0.5,3.9
		c0.4,0.6,0.5,2.1,0.9,2.7c0.5,0.6,1.1,1.7,1.1,1.7s-1.9,0.5-2.2,0.3s-3.1-5.3-3.4-5.7c-0.2-0.4-0.5-7.6-1-7.8
		c-0.4-0.2-1.4-2.1-1.5-4s1.4-8.1,1.7-8.6c0.3-0.5,3.5-2.4,3.5-2.4s-2.1,5.1-1.8,7.2c0.3,2.1,0.9,4.4,0.9,4.6
		C156.5,159.8,156.6,160.3,156.6,160.3z"/>
	<path class="st21" d="M163.1,169.8c0,0-0.7-0.7-2.4-0.6c-1.7,0.1-1.9,1.5-1.9,1.7c0,0.3,4.8-0.4,4.7-0.6
		C163.3,170.1,163.1,169.8,163.1,169.8z"/>
	<path class="st26" d="M155.6,166.1c0,0,1.3-0.2,1.8-0.2s1.2,0.4,1.2,0.4l-1,1.4"/>
	<path class="st4" d="M149,217.3c0,0,1.2-0.7,1.5-0.7c0.3,0,3.5,1.3,8.8,1c5.2-0.3,13.1-1.3,17.3-1c4.2,0.2,7.2,0.5,7.2,0.5
		l-0.1-1.1l-14.5-4.3l-22.2,1.5"/>
	<path class="st27" d="M161.5,161.1c0,0-0.3,0.8,0,1.5c0.3,0.8,1.3,0.9,1.4,0c0.1-0.9,0-1.8-0.6-2.2
		C161.8,160,161.5,161.1,161.5,161.1z"/>
	<path class="st27" d="M154.5,162.2c0,0-0.2,0.7,0,1.4s1.3,0.8,1.4,0s0-1.7-0.6-2C154.8,161.1,154.5,162.2,154.5,162.2z"/>
	<path class="st27" d="M160.1,156.9c0,0,1.9,0.4,2.5,0.6s1.9,1,2.1,0.8s0.5-0.9,0.3-1.2s-2.3-1.2-2.9-1.3s-1.4-0.1-1.7,0
		C160.2,155.9,160.1,156.9,160.1,156.9z"/>
	<path class="st27" d="M152.8,160.3c0.2-0.2,1-1.6,1.5-1.6c0.5-0.1,1,0.1,1-0.4c0-0.5,0.1-1.3-0.2-1.3s-1.3,0.3-1.9,1
		c-0.6,0.7-0.7,1.4-0.6,1.6S152.8,160.3,152.8,160.3z"/>
	<path class="st28" d="M140.3,181.5c0,0,2.6,2.1,4.7,5.2c2.1,3.1,3.5,6.3,3.5,9c-0.1,2.6-0.7,6-1.5,7.4c-0.8,1.5-1.2,2.5-1.9,2.6
		c-0.8,0.1-0.8,0.1-0.8,0.1s1,2.4,0.8,4.5c-0.2,2-0.5,2.5-0.8,3.4c0,0,6.8,2.4,10.5,2.4c3.7,0.1,8-1.4,15.6-1.5
		c7.6-0.1,14.4,1.5,14.4,1.5s-0.4-6.1,0-7.7c0.4-1.6,2.7-6.9,2.6-8.7c-0.1-1.8-2-11.1-2.3-12.5c-0.3-1.5,1.9-3.3,2.3-3.5
		c0.4-0.2,0.9-0.5,0.9-0.5s-3-1.6-5.6-2.7c-2.6-1.2-5.7-1.8-5.7-1.8s1.7,2.7,0.5,4.6s-3.3,4.4-8.4,4.3c-5.1-0.1-10.3-0.6-11.9-2.3
		c-1.6-1.7-6-7.7-6.1-8.3c-0.1-0.5-3,0.7-6.8,2.2C140.3,180.9,140.3,181.5,140.3,181.5z"/>
	<path class="st21" d="M161.8,201.7c0,0-3.1-2.5-3.2-2.8c-0.1-0.4,1-1.7,1.3-1.6c0.3,0,2.9,2.8,3.1,3.4
		C163.1,201.1,161.8,201.7,161.8,201.7z"/>
	<path class="st21" d="M165,198.8c0,0-2.4-3.5-2.4-3.9c0-0.4,1.3-1.1,1.7-1.1c0.5,0,2.1,3.9,2.2,4.3S165.2,199,165,198.8z"/>
	<path class="st21" d="M169.2,197.2c0.2-0.2,0.1-4.6,0.4-4.9c0.3-0.3,1.5-0.2,1.8-0.1c0.3,0.2-0.1,4.5-0.3,4.7
		S169.2,197.2,169.2,197.2z"/>
	<path class="st21" d="M175.3,193.5c0,0-2.1,3.6-2,3.8s0.6,1,1.4,0.6c0.8-0.3,2.2-3.3,2.2-3.7C176.9,193.9,175.3,193.5,175.3,193.5z
		"/>
	<path class="st21" d="M175.5,199.2c0,0,2.6-2.2,2.9-2.2c0.3,0,1.1,1,0.6,1.6c-0.5,0.7-3.2,2.1-3.5,1.9S175.1,199.5,175.5,199.2z"/>
	<path class="st28" d="M168.7,197.3"/>
	<path class="st5" d="M157.8,204.8c0,0,5.2-1.7,9.9-2.3c4.6-0.6,8,0.6,8.3,0.3c0.3-0.3-0.8-6.3-2.5-8.3c0,0-1.6,1.8-1.9,2.2
		c-0.3,0.3-1.9,0.5-1.9,0.5s0.1-1.5,0.7-2.3c0.6-0.8,2.6-1.6,2.6-1.6s-0.8,0.4-2.4,0s-2.3-1.9-2.3-1.9s3.7-0.5,4.7,0.7
		c0,0,0-1.3,0.4-2.2c0,0,0.7,0.8,0.5,2.2c0,0,0.9-1,1.7-1.1c0.9-0.1,2.1,0.1,2.1,0.1s-1,0.7-1.6,1.2s-1.5,0.6-1.5,0.6
		s2.2-0.2,2.7,0.3s0.7,0.8,0.7,0.8s-2,0.5-3.4-0.1c0,0,2.2,3.4,2.8,9.1c0,0,3.1,1.1,3.3,1.4c0,0-3.9-0.3-5.8-0.3s-2.4,1.6-4.5,1.8
		c-2.1,0.3-4.8-1.5-7.2-1.6C161.1,204.5,157.8,204.8,157.8,204.8z"/>
	<path class="st23" d="M414.5,349.9c74.6,8.7,126.7,22.7,142.1,27.2c3.1,0.8,6.7-0.3,8.7-2.8c2.5-3.1,5.6-8.1,8.1-15.4
		c2.2-7,2.5-12.9,2.2-17.1c-0.3-3.4-2.5-6.4-5.9-7.3c-24.1-7-130.9-35.9-274.4-35.9c-28.4,0-55.3,1.1-80.5,3l0,0
		c0,0-14.4-0.4-25.1-1.1c-10.7-0.7-24.4,5.9-30,6.6c-5.6,0.7-12.3,0-20.8,0.6c-8.5,0.5-11.1,3.9-11.1,3.9l0,0
		c-55.5,8.6-93.7,19.1-107,22.9c-3.4,0.8-5.6,3.9-5.9,7.3c-0.3,3.9,0,9.8,2.2,17.1c2.2,7.3,5.6,12.3,8.1,15.4c2,2.5,5.6,3.6,8.7,2.8
		c15.4-4.5,67.8-18.5,142.1-27.2C176.2,349.9,280.9,341.1,414.5,349.9"/>
	<path class="st29" d="M414.5,349.9c74.6,8.7,126.7,22.7,142.1,27.2c3.1,0.8,6.7-0.3,8.7-2.8c2.5-3.1,5.6-8.1,8.1-15.4
		c2.2-7,2.5-12.9,2.2-17.1c-0.3-3.4-2.5-6.4-5.9-7.3c-24.1-7-130.9-35.9-274.4-35.9c-1.7,0-3.4,0-5.1,0c2.4,0.5,4.3,1.1,5.1,1.8
		c3.6,3,4.7,5.8,7.4,7.3s21.6,14.1,26.6,14.9s10.4,1.6,10.4,1.6s-7.7,6.6-10.8,8.9c-3.1,2.3-8.5,9.3-8.5,9.3h5c0,0-1.5,1.3-9.9,3.8
		 M335.9,317.3c6.6-5.3,23.1-4.9,23.1-4.9s-4.2,4.1-10.4,4.9C342.5,318.1,335.9,317.3,335.9,317.3z M365.2,329.3
		c-3.5,1.9-17.7,9.1-17.7,9.1s9.3-9.1,12.7-10.7c3.5-1.5,7.3-3.9,7.3-3.9S368.7,327.3,365.2,329.3z M388.8,328.8
		c-3-2.7-9.8-8.3-9.8-8.3c15.4,1.4,25.3,10.6,25.3,10.6S391.8,331.5,388.8,328.8z M400.5,311.5c-2.5,0.9-12.1-0.9-14-0.9
		c-1.8-0.1-10.1-0.7-9.3-1.4c0.9-0.7,14.5-2.5,14.5-2.5c3.7-0.5,17.1,2.5,17.1,2.5S403,310.7,400.5,311.5z M434.1,320.5
		c-4.3,2.1-17,0-17,0s7-4.1,12.7-5.5c5.7-1.5,16.7,0,16.7,0S438.5,318.4,434.1,320.5z M482.7,331.1c-7-1.1-12.1-5.3-12.1-5.3
		c15.5-1.8,32.3,2.6,32.3,2.6S489.7,332.3,482.7,331.1z"/>
	<path class="st19" d="M465.3,175L433.2,218l-5.1,3.5c0,0,34.6-47.8,36-48.6s2-0.7,2.4,0c0.4,0.7,1.1,2.5-0.6,4.7"/>
	<path class="st29" d="M109.2,314.6c1.2,0.6,2.8,1.1,5,1.4c6.1,0.8,13.6-0.8,16,0c2.5,0.8,14,4.8,19.2,5.1
		c5.3,0.3,13.4,1.2,18.2,1.1c4.8-0.1,8.7-6.7,14.4-6.3c5.7,0.5,10.1,2.2,12.4-0.4c2.2-2.6,6.2-7.9,6.2-7.9s10.7,2.3,16-1
		c5.3-3.3,2.5-0.9,5.3-3.3c0.8-0.7,2-1.6,3.3-2.5c-3.4,0.2-6.8,0.5-10.1,0.7l0,0c0,0-14.4-0.4-25.1-1.1c-10.7-0.7-24.4,5.9-30,6.6
		c-5.6,0.7-12.3,0-20.8,0.6c-8.5,0.5-11.1,3.9-11.1,3.9l0,0C121.4,312.5,115.2,313.6,109.2,314.6z"/>
	<path class="st13" d="M89.5,310.8c0,0,1.1-8.9-2.1-12.8c-3.2-3.9-8.1-13-8.1-13s1.1,8.5,4,14.1S89.5,310.8,89.5,310.8z"/>
	<path class="st13" d="M80,313.3c0,0-4.1-3.9-10.2-2.7c0,0,4.7,3.7,7.5,3.9C80.2,314.8,80,313.3,80,313.3z"/>
	<path class="st29" d="M246.5,304.3c-3.5,0-6.3,0.8-6.3,1.8c0,0.2,0.1,0.4,0.3,0.6c-0.1,0-0.2,0-0.3,0c-2.7,0-4.9,0.6-4.9,1.2
		c0,0.7,2.2,1.2,4.9,1.2c2.7,0,4.9-0.6,4.9-1.2c0,0,0,0,0-0.1c0.5,0,1,0.1,1.5,0.1c3.5,0,6.3-0.8,6.3-1.8
		C252.9,305.2,250,304.3,246.5,304.3z"/>
	<ellipse class="st29" cx="268.2" cy="320.5" rx="4.4" ry="1"/>
	<ellipse class="st29" cx="246.2" cy="332.5" rx="5" ry="1.3"/>
	<path class="st26" d="M181,266.2c0.6,0,3.7,2,4.9,2c1.2,0,0.1,15,0.1,15s3.5-17.6,3.8-20.7c0,0-1.4,3.3-3.9,3.3
		C183.4,265.8,181,266.2,181,266.2z"/>
	<path class="st4" d="M145.9,224.4c0,0-2.3-1.4-2.2-3.6s1.3-2.5,1.8-5.2"/>
	<path class="st0" d="M183.8,217.1c0,0,1.5,2.7,1.5,6.4c0,3.7-1.4,4.4-1.9,4.6c-0.5,0.2-3.8-1.2-3.8-1.2"/>
</g>
</svg>
