<svg height="769" preserveAspectRatio="none" viewBox="0 0 798 769" width="798" xmlns="http://www.w3.org/2000/svg" xmlns:xlink="http://www.w3.org/1999/xlink"><filter id="a" height="100%" width="100%" x="0%" y="0%"><feOffset dy="3" result="shadowOffsetOuter1"/>
<feGaussianBlur in="shadowOffsetOuter1" result="shadowBlurOuter1" stdDeviation="0"/>
<feColorMatrix in="shadowBlurOuter1" result="shadowMatrixOuter1" values="0.02     0     0     0     0,
              0     0.04     0     0     0,
              0     0     0.89     0     0,
              0     0     0      0     0"/><feMerge><feMergeNode in="shadowMatrixOuter1"/><feMergeNode in="SourceGraphic"/></feMerge></filter><g fill="none"><rect fill="none" height="100%" width="100%"/><g fill="#F1F2F8" filter="url(#a)"><path d="m425.194 220.984-1.58-2.476 2.596-1.816.727 1.46m-7.339 48.045-1.387-2.778 1.893-.185m-53.944-90.927 2.677 1.337.25 2.32-2.227 3.33-3.334 1.62-1.41 1.61-2.305.427-1.07 1.253-4.47-.356-4.07-2.588-1.455-4.935.697-2.834-3.334.71-.58-1.975 2.24-3.517 1.166-.267 2.818 2.576-.272 1.682 2.47.34 3.04-3.056 3.416 1.07 3.137-2.883m-93.85 332.875 1.112 1.223-3.794 1.935 1.094-2.962m517.76-39.708.69-3.084-1.02-3.425-2.688-3.48 1.62-.762 1.274 1.295.68 3.566 2.395.37.206 1.866 2.682 1.11 3.08-.842-1.463 3.837-1.31.13-1.5 4.043-2.638 3.182-1.815-.848 1.26-2.03-.564-2.02-2.17-1.038m-363.843-193.934-.535 3.827-2.66-.23.26-3.043-.784-1.314 3.174-1.032m-171.897 249.422-4.276-2.28 3.145-.653m395.094-191.619 2.742.8-.995 1.987-1.9 1.306-2.187-.628-.117-1.83m-540.321-113.009-1.62.386-1.236-1.906 1.29-1.79 1.9.992m.331 6.844-1.938-3.988 1.605-.09m6.278 9.551-2.815-2.565 2.015-.675m329.855-63.298.454 1.627-1.953 1.564-.913-1.616m-409.933 30.203-2.715-2.737 1.434-.592 2.152 2.517m-8.153-6.324-2.206.114-1.752-1.8-2.223-.943-.296-2.466-2.397-1.157-3.172.865-.93-2.358-2.547 4.625v-22.372l2.498 1.27 2.848 2.8 5.004 3.717 1.144 1.682-.108 4.32 2.29.634-.467-2.598.96-.75 4.12.856.866 1.577 3.588 2.882-1.67 2.587-3.27.833-.29 2.445m199.407 12.36-2.19 2.09-1.84-1.252 1.08-2.14 2.72-.57m-6.107-12.396 1.013-.31 6.233 5.337.234 1.743 2.574 1.36-1.295 2.026-3.285-2.56-2.322.692-3.66 3.53-2.114-4.857-.466-2.547 1.144-6.4m-75.649-55.966 6.017.623 4.372 5.304-8.518 6.99-.283 1.87-2.557 3.03-.056 2.7-2.56.676-2.526 2.594-1.474-.838-1.21-3.158-4.103-2.044.32-2.047 1.6-2.403-.385-2.224 2.517-5.463-1.412-6.307 6.813-1.63m53.888 22.167-2.846 2.56-4.935-6.436-2.346-.858-1.895-2.73 1.373-2.934 1.684 2.747 2.71-1.357-1.115-2.943-2.15-1.27.924-2.248 2.62-1.725 1.62 1.69 4.473-.947.594 1.276-1.658 2.942-.415 2.107 3.086 2.877.436 1.855-.56 4.165m-20.783-9.628-2.457-2.67 1.542-1.894 2.576-.227 1.408 1.243-1.005 4.575"/><path d="m125.58 252.24-1.17-.385-1.902-6.28 5.528.443-.556-2.376-3.143-2.516-3.177-3.408-5.423-2.45.018-3.957-1.836-3.246-3.247-2.72-1.912-3.46.092-3.525-5.674-6.63-.647-2.016-2.222-2.325-4.37.507-3.246-3.16-4.715-2.943-6.04-1.8-1.886.51-2.92-1.373-3.934-2.878-3.108.704.97 1.498-1.53 2.357-2.32-.135-2.675 2.97-2.177-2.192 1.752-4.538-2.585 1.07-1.003 2.776-3.136 2.745 1.752 1.806-2.11 3.208-2.885 1.413-1.913 2.887-4.58 2.974-.91 1.69-6.145 2.058-.26-1.914 2.297.142.883-1.612 2.988-2.195 2.948-3.287.47-3.637-2.85-1.71-2.518.457-1.353-1.032-2.483 1.777-1.336-6.47-4.148 1.124-1.25-2.09 1.418-2.067-3.39-1.513-1.197-3.344 2.76-4.88 4.025-1.112 1.898-2.308 1.927.302 1.14-1.328-.476-3.885-1.52-1.426-1.87 1.27-1.445-.6-4.026 1.093-2.634-.74-1.19-2.49.522-1.464-3.478-1.304 1.253-1.358 4.566-3.13 3.755-.834.047 2.7 4.213.335.816-2.882-.924-2.957-4.142-.466-.904-2.834-4.013-3.025-.864-1.77.312-2.75 4.225-.266 2.697-2.866.334-2.602 2.385-3.334 2.212-.204 2.69-3.036 4.272-.626 2.41-3.11 4.582 3.694 2.89-.79 3.083 3.254 2.767.533 3.253-.906 2.638 1.666 3.807.4 2.734 1.257 3.97-.777 3.878 2.56 5.155 1.276 4.34 3.59 3.737.742-.796-2.838 1.254-.983 5.226-.098 5.082-4.29 2.484.728 1.514 1.64 1.733-2.762 1.562-1.181 1.452 3.915 1.727 2.234 2.537-3.698.628 3.854 2.956-.81.474-2.076 4.502 1.026 2.183 2.004 2.957.843 3.172 1.914 2.572.582.916-1.075 3.15 2.536-.21 2.05-2.035 1.47 2.97 1.663 6.414-.453 2.04-1.395.72 1.694 2.52.648.635 3.35 2.15.487-.886-6.213-2.417-1.484 1.214-2.213 4.512-1.714 1.756 1.077.34 2.308 1.848 1.98 2.037-.5 1.573 1.633 2.875.893 1.772-.82 3.327.603 2.46-.418-1.187-3.24 2.986-.97.897 1.488 3.478 1.025 2.528-1.13 1.042-2.168-1.94-1.096.948-1.698-.163-2.223-3.23-2.276-1.736-1.95.932-3.29-1.15-1.277.296-3.424 1.155-1.99 3.25-1.99 2.827 2.774.624 4.128 1.66 1.72.374 3.155-1.247 2.264 3.318 3.19 1.365 2.41-.368 2.567 1.317.564 1.376-5.265 2.577 1.897.985 3.28-1.1 1.363.33 2.82 1.447 1.803 2.296-1.28 1.25-2.78.5-3.99 1.594-.21-1.232-3.395.186-2.696 1.87-.864 4.243 1.175 3.106 6.5-2.136 1.817.258 2.56 1.98 2.65-.597 2.635-1.5 1.653-3.87 1.402-1.055 1.282-3.412.115-3.73 8.745-2.12 2.84-2.274-.44-1.493 2.36-1.695.717.84 1.927-4.73 2.997-2.013 2.794.74.784-2.62 4.972-.688 3.07.69 4.873 2.927.316 1.623 5.433-.055 1.72 2.938-.868 5.184 1.663 2.635 2.972 6.416 3.404 4.54.174 1.096 1.476-.502 2.285.692 1.596-.382 2.92 2.074 3.3 3.44 3.344 2.773-3.64-.94-2.983-.158-3.618-1.146-2.885 2.742-1.224 2.664-2.44 1.093-1.944.16-3.778-1.2-3.488-3.143-2.917 2.706-5.025-1.2-4.378.022-3.084-.8-3.323 1.54-2.058 6.085 1.746 1.993-1.192 3.62 2.804 1.067 2.756 4.02 2.195.786 5.406 2.694 4.29 1.89 1.362 3.998-3.337 1.62-5.266 1.2-.052 1.018 2.814 1.784 2.635 1.262 3.424 1.423 1.306-.272 1.893 1.28 1.205-1.09 3.823 3.642 1.882.15 1.92 5.048 1.503-.408 2.405 5.085 3.24.402 4.688-2.484 2.185-2.254.292-2.514 1.424-2.038 2.492-2.557.21-7.513-.314-4.285.46-2.233 2.963 1.392.793 4.027-.396 1.582 1.124-1.335 3.56-.174 3.466.845 1.626 2.696 1.643 2.664-.184 1.397 2.008-6.27 2.618-2.61 2.518-1.647-1.89 2.946-3.18.04-1.588-9.334 4.97-2.087.565-2.114 4.52.924 1.784-2.832 1.36-2.452.17-2.808 1.835-.137 2.984-1.367 1.272-.446 2.38-2.942 2.954-.38-.212-.133-.134-.103-.073-.102-.172-.07.115.013.005.13.09.192.304.623.482.776 3.42-.8 2.76-5.305 2.914-1 1.636-4.315 3.817-1.008 2.225 2.364 6.134 1.058 3.98-.31 2.755-1.143 1.49-2.558-3.23-2.177-3.458.452-2.672-3-3.04-1.945.92-3.12-1.577-6.047-.074-2.77 2.88-6.93-1.43-3.07.757-1.373 1.666-2.826 1.364-1.59 3.034.385 3.69-1.19 1.535.13 8.062 4.024 6.692 3.026 1.595 6.99-1.716 1.382-1.11.63-3.228 1.712-1.342 3.438-.767 3.015 1.175-1.602 2.466-.633 3.9-1.14 1.61.246 4.727 5.082-.745 3.476.446 2.028 1.293-.583 8.275.42 2.607 2.696 3.292 2.615.446 3.213-1.81 3.477.828 2.585 1.403 2.683-1.752.358-2.626 3.036-1.733 4.842-.195.825 1.717-1.196 1.87 2.367 1.164-.94-3.654 3.005-1.537 2.877.394 1.438 2.098 4.31-.305 2.612 1.327 3.386-1.278 5.88 2.608.146 1.82 3.66 1.35 1.497 2.33 2.687 1.78 2.8.92 4.038-.17 2.757.955 3.18 2.257 1.867 5.147 1.736 2.145-1.637 2.74 4.764.334 8.588 3.352 1.488 1.815 1.538-.44 2.308 1.02 4.892.047 3.373 1.923 2.904 2.758 3.693.468 1.47 4.12-1.06 4.892-3.685 3.783-3.075 4.736-1.592 1.103.477 5.538-.73 4.053-1.2 2.12.088 1.845-2.822 4.867-.067 1.552-2.417 2.265-5.757.263-.507.654-7.813 4.697-.73 8.143-2.57 2.702-1.87 3.864-3.287 3.045-1.215 2.706-2.187 2.924-2.598 1.553-4.058 3.6.262 1.635-1.947 3.405-3.253 1.64-6.203.89-1.01.962-.1 4.468-3.254.853-2.99-.892.133 3.436 1.117 1.42-1.752 3.87.264 1.923-3.982 2.916-1.32 2.42 1.86 2.965 2.08.358-.265 3.135-2.57 2.07-2.03 4.726-1.85.913-.612 2.32.98 3.482-4.6 2.847-.407 3.804-2.352-.3-.564-1.696 2.473-1.63-2.19-1.052-2.59 1.593-.506-3.38-1.525-3.798-.24-8.094-.737-3.04 1.222-2.274-2.29-1.243.183-2.33 3.218.266 1.205-7.82 1.175-3.825-.152-1.47-2.43.07-.468-2.01.53-3.078 1.09-1.806-.976-6.138 1.087-.22 1.153-4.164.95-1.337 1.764-7.276-.68-4.644.982-1.836-.54-2.5.79-1.377 1.565-7.402-.28-5.54.645-.544.307-7.517-.343-3.012-2.41-2.447-8.352-4.646-2.49-2.958.22-1.46-3.264-5.68-2.94-6.15-2.21-3.27-2.475-1.505-.313-4.066 1.63-1.657-.898-2.853.92-4.038 1.872-3.1 1.78-.757.3-1.844 2.113-1.315 1.353-2.326-.396-6.088-4.014-5.52-2.987 2.066.106 1.895-4.162-2.456-1.46.22-3.898-3.714h-1.994l-.088-2.633-4.482-4.196-10.056-3.694-3.703-3.574-1.143-.46-4.762 1.43-9.958-3.73-2.004-1.605-3.398-.85-3.203-2.295-.86-2.843.304-2.242-1.46-2.934-4.66-5.53-3.143-2.025.29-1.635-2.435-1.81-4.055-4.51-3.357-6.52-2.5-.8.305 4.196 3.915 4.387.29 1.517 2.682 2.933.566 2.283 3.278 4.185-1.24 1.12-3.84-3.078-.158-2.746-5.092-3.086.98-3.108-3.664-3.268-4.014-9.325-2.26-1.854-4.306-1.117-.356-1.786-2.892-3.725-1.247-3.752-2.723-3.108-.275-2.623-1.13-1.234.66-3.463-1.092-4.166.874-3.075.572-7.31m103.661-88.734-.315-2.116 1.363-3.114 1.943-.49 1.706 1.025-.374 4.292-3.27 1.33m-9.736-59.771 3.178 1.626-.105 3.79-1.488 1.876.285 1.637-3.425 1.165-3.742-.994-1.635.648-7.874.454-3.174-1.18-1.814.568-4.568-2.063-1.014-3.76 1.12-3.937-2.437-6.052-4.893.373-1.483-1.352-1.636-5.145 2.887-.967 2.49 1.643 1.255-.312 1.366 3.15 3.63-.898 1.914 1.187.57 1.62 2.322 1.885-2.637.958 5.114 5.194 1.945-.92 1.033 1.24 4.823-1.433 1.583-1.6 1.314.752 2.23-.886m-215.21 34.024 3.022.598 1.41 1.687-1.06 1.385-3.427.86-1.193-.541v-3.853m135.417-33.8 2.477-.362-1.665 2.94-1.915-.965m47.446 4.397-1.438 1.074-3.12.028-1.047-3.942 1.796-2.195-5.98 1.308-.983-.844 2.663-3.077-.843-2.195 1.638-1.92 2.22 3.38.767-2.085-2.285-2.085 1.657-1.368 4.072.25 1.336.966.675 2.974-.175 4.583-.86 1.702m-14.827-9.959 2.508.736-1.794 1.76m4.005 1.569-1.555 1.003-2.356-1.63 3.444-.878m-28.055 10.985-.666 1.107-4.35-2.364 1.086-2.1 1.22-5.757 2.244-2.928 2.637-.593 1.593 2.742 1.583-.636 2.158 2.46 1.496 4.052 4.624.324.467-1.955-2.2-1.35 1.674-1.98-2.493-3.025 2.87-3.807 2.077 4.96-.615 1.934 1.255 1.777 4.28-1.048 1.146 1.527-1.265 7.062-2.632 1.198-3.09-1.172-6.774 4.583-2.83.868-1.732-.407-1.656-2.046 3.52-2.42 2.56-.072 1.52-1.642-7.635 1.037"/><path d="m155.272 128.48 1.85-.446 1.843 6.937 1.85-.365-.704-2.414-.834-6.452.342-2.19 2.537.304 2.913 3.04 1.667 6.957 1.05 2.595-.65 3.398 2.322 3.383 2.33.948 2.24 2.204 1.272 2.932-3.29-.785-.21 1.55 1.716 2.497-2.834 2.244-4.704-.575-1.324-1.774-2.663-.247-1.266 1.48-3.267 1.51-4.938 1.294-3.48.33-1.98-2.093.046-2.45-5.094-.547-2.937-3.13-.225-1.61 2.87-1.205 3.474-.647 4.368.82.85-2.073-4.42-1.09-4.218.688-3.054-.087-2.202-2.63 1.34-1.313-2.75-5.28 2.11-2.927-.883-1.332 2.614-3.118 6.29-3.443 1.22 1.916 4.21 1.774 2.877 2.456m43.774-44.124 1.696.198 1.3 2.903-.966 1.194-2.012-1.024m-11.714-3.854 3.442-1.102 3.35.717-.848 2.91-4.977-.226m-5.061-11.942-.64-1.607 1.97-.894 2.16 1.35 3.762 3.717-.175 3.082-4.286 2.946-1.446-2.258-.215-2.114-1.68-2.774m18.35-1.335 1.04 3.194-2.024-.374-1.09 1.875-2.605-1.25-2.446-3.578-2.233-4.603 4.494-2.59-1.778-1.91-2.088-.102-2.288 1.282-2.622-6.42-.906-1.128.29-5.25 1.553-3.337 2.903-.79-.464-1.752-1.724-1.113.56-2.757 4.967-1.456-.44-1.52-2.576-.482.505-1.704 2.226.097 2.36 1.902 2.9 9.296 3.05.282.852 1.234 3.066.578.156 2.872 1.318 3.812-.522 3.89 1.913-.866 3.172 4.624-3.582 2.463-3.344 6.627-2.548 2.952m511.615 153.405.252-5.407 2.472-1.835.986 3.938-.256 4.682.704 1.015 1.332 5.17-2.55 2.123-.952 3.505 1.32 4.803-2.952.027.87-4.523-.734-2.315.605-2.848.24-5.65m-199.047-97.932-1.855-.516-.122-3.73 1.888-.17 1.078-3.05-.667-2.545 1.915-2.98 3.25-1.445 3.585 2.425-2.598 6.037-.028 2.314 1.88 5.58 1.883 2.29-2.726 1.416-2.215-.04-2.84-1.192 1.02-2.15-1.58-2.118"/><path d="m521.583 120.654-2.802-.508 1.675-2.42 1.797-4.303 2.192-.603-.995-3.77 6.076-6.387 4.287-1.375.53-2.388 4.392.61 5.702-3.318.928-1.856 2.258-1.967 3.23-.113 1.11 1.67-.86 3.584-2.99 2.828-2.892 1.184-2.984 2.115-2.003.63-6.398 4.615-1.487 2.574-1.93 1.392-1.348 3.768-1.8 2.59-.626 2.452-1.925 2.633-2.795-.51-2.363-1.825m278.425 14.974.013 3.853-2.524 1.22-.518-1.876m-23.718 7.709 1.196-.79 2.134 1.142-1.995 1.604m-43.119-41.606 2.36.19 1.106 2.928-2.212.902-3.4-.328-.927-1.338-3.033-1.828 2.873-2.406m-17.177 17.306 2.448-3.605 2.418-.83 3.225 3.37-.642 2.322-5.958-1.876m-1.337-20.963.973 2.273 1.468-.57.017-2.49 1.632-.984 1.942 2.41 2.21-.01 3.552 2.507-1.184 3.694-2.316 1.872-2.93.993-1.786-.984-5.46 2.494-2.027-1.028-2.674-4.234 1.098-1.144-.673-3.095 1.09-2.358 2.638-1.954m-56.26 15.966-1.394 2.416-1.39-.46-.417-3.376m-202.423-34.862-.934-3.2 3.667-.743.45 3.342m216.094 298.621-1.905-3.218 1.33-2.008 1.453-5.6 1.807-1.425 8.087 1.876-9.262.11-.542 2.326 2.31 1.792 2.705 3.29-1.68 2.482-2.62-1.855.157 5.058-2.414-.128m-214.776-325.61 1.877-1.6.944 3.063 2.282-.562 4.38 1.168.99.94-.16 3.03-3.327 3.462.296 1.434-3.797 1.996-2.572-1.21-4.275.312-2.1-1.55-.545-1.732 4.654-1.522-.57-.93-3.527.85-3.88-1.06-.97-4.185 3.04-.28 1.325-1.254 3.738.246m5.531 30.056-4.83 1.873-2.047-.756 1.482-3.72-1.588-1.702 2.032-1.393 2.407-.446m-108.109 65.021-4.404.802 1.892-3.058 1.32-.2 1.734-1.29.966 2.922"/><path d="m283.093 175.31-3.06-4.85.446-3.03-.718-1.798.046-3.49 1.35-3.676 1.543-1.618 3.186-.66-.154-4.035 1.33-5.237-3.274.285-2.32-2.015-2.295-.673-.153-2.753 3.293.67 4.23 2.72-.294-2.406-2.978-3.055.14-3.363-4.098-.433-.884 2.166-2.484-.72-.492-1.967 1.952-3.54.747-5.256-1.72-.598.374-2.902-1.99-1.804-.528-4.228.342-1.604-1.234-3.827-2.553-1.688-1.112-2.742.136-2.695-1.947-2.043-4.412-3.256-5.272-1.428-4.005 2.436-3.69-1.404 1.236 3.198-4.664-1.558-2.442-2.627 2.018-2.05-4.19-1.993-1.686-2.124 1.194-1.865 3.838-.705 1.695-1.037 3.593.16 1.462-.868-.49-1.963-1.613-.592-1.537 1.823-3.27.586-2.467-1.17-4.302-3.85-1.32-2.168.87-4.188 1.56-.367 4.174-2.758 2.89-2.806 3.132-1.31 2.204.537 4.137-6.5.058-2.848-.874-2.21-1.552-.638-3.676.59-1.067-1.77 1.043-2.832 2.097-3.507 1.7-1.287.85-3.01 3.088-3.192 1.667.36 2.238 3.605 2.106-.87-2.39-5.2 1.133-2.565-1.32-3.273 5.862-5.886 2.768-.922 6.22-2.924 1.816 4.4 3.64 3.34 4.16.934 1.027-.484-2.594-5.02.198-5.202 2.267.113 4.732 5.974 2.312 1.637.994 2.666 2.276 3.592 1.105-1.098-1.065-3.603 1.264-1.13-.85-1.86 2.966-3.592-4.81-6.775 7.106-.386 3.03 1.09 1.658 2.545 1.78-1.055-4.464-3.636-6.633-.2.076-2.456-1.976-2.228.702-1.03 3.802-.24.17-1.876 1.922-.392 4.34 5.59 2.557.156 3.2-3.352-2.166-2.583-.297-3.63 2.62-2.002 3.715-1.14 3.974-.278 3.895-.91 3.474.96 1.495-.896 2.44.95 2.274 2.5 1.725-1.702 2.425.432 3.776 3.005-1.026 1.8-4.032 1.838-4.326-.613-.41 1.036 6.688 1.058 4.67-2.444 2.022 5.427 2.358 1.652 3.627.75 2.948 4.374-3.632 4.447-3.282.478-3.555 2.23-6.833-.754-4.502.8-.57.846-6.226 4.166 1.342 2.635 1.744-2.642 6.486-2.858 3.317-.38 5.03.565-.065 3.575-4.23 3.37 1.307.82 5.94-3.983.203-3.806 4.31-.725.584 4.412-.71 4.66-1.67 2.757-.964 5.088 3.953-5.23 2.203-4.072 4.115 2.378 1.578-1.207 2.743-5.496 4.952 1.342 4.232 3.534.553 3.096-4.11 4.814-2.44.37.348 2.864-2.132.544-3.257 2.244 2.39 1.637-2.465 3.283-2.813.12-2.78-1.233-2.046 3.23-.746 3.536 1.273.048.662-2.95 1.68-1.287 2.374-.328 1.47 1.296-1.325 3.073-3.333.453-.764 3.526.25 3.854-2.484 1.725-.95 2.975.43 1.5-.798 5.37-1.59 5.296 1.553-.492.686-3.344 2.21 2.66-.836 2.17 2.26 2.326 2.48.215-.532 4.144-4.634-1.11-2.673 2.45.31 3.828 1.314-.592 2.78 1.778.886 7.278-2.68.978-.102 3.734 3.63 2.253-.876 1.695-2.222-1.38-3.125-.03-.893 2.803 3.486 1.82-.084 3.396-3.392 1.507-4.012-2.597-3.097 1.05-.8 1.518-.953.13 1.063.953 1.17 1.44 1.356 3.798 4.47 3.58-.746 1.662 2.557 1.935-.087 4.27-.566 1.867-3.212.197-1.303-1.285-1.393-4.267-1.694-.385-.45 1.475-2.377 1.48-2.55.456-.63 3.355 3.756-.67 2.593.276 5.454 2.98-.32 1.252-4.54 3.47-2.986 3.066-4.61 1.484-4.452 2.312-3.527-.337-2.29 2.97-.765 2.21-2.792 5.053-3.115 2.44-8 2.242-.33 1.74-2.66 1.542 1.098 1.968-.506 5.127-1.813 2.74-1.985.804.855 3.627-2.512 8.858-2.92.39-4.723-4.05-4.29-1.53-1.59-3.355-1.985-2.615.394-1.172-2.12-1.96-1.192-3 1.99-3.864-3.143-1.447m-103.224-25.729 1.515-3.895 4.536 4.72.758 2.39-1.518 1.806-6.5-2.186-.597-1.772m-13.6-68.518 2.524 4.24-1.8 1.664-1.34-3.974m-9.644.333-3.985 1.92-2.562-2.006-.298-3.35 1.46-1.368 3.593-1.345 2.514-.14.406 1.75m-10.042-.694 1.538 1.977-1.468 1.292-1.83-2.243m-9.24 6.257 2.5-.47 2.05.58 1.493-2.598 2.246 1.98-1.366 1.698.073 5.604-4.36 1.924-2.808 2.66-.98 2.325-6.14-1.616-.286-2.594 2.367-.89.765-2.243 1.92-1.42m46.661-32.292-1.914-1.747.487-2.793 2.478.462.412 3.87m-5.758 9.704 1.98 1.563 1.555 3.17-.27 2.798 1.888 2.583-.903 2.42-1.992.18-1.914-4.14-4.506-1.88-2.915 1.192-1.287-2.7 3.534-.295-3.468-5.78-1.407.082.35-3.562 2.614-.625 2.666 1.295 1.052 2.516m-20.481 5.806 3.165-2.335 2.663 3.228-.372 1.786-4.582.522-1.58-1.138"/><path d="m278.653 145.178 1.747.49 3.664 3.9-.946 1.228-2.88 1.283-3.102-2.94.335-3.272m255.549 2.188-1.476 1.238-2.21-1.805-.625-1.867 1.184-1.327m-339.45-10.97-2.086.456-.205-3.505-1.215-2.556-.006-4.936 1.223-4.573 3.428-1.197 7.538 2.126-3.624 8.096-1.087 1.21-3.267.003.74 1.914m54.638 194.548.662 1.496-5.214-.025-1.287 1.737-2.89-1.918-.122-3.583 1.613.617 2.676-.515m453.722 49.726-3.397.402-2.352-3.24 2.604-1.057 3.39.82.5 3.643 1.517 1.985 1.43.235 2.038-2.555 2.796-1.556 4.71 1.942 3.616.796 6.84 2.394 2.832 2.298-.163 1.277 3.8 1.217.668 1.653-1.343 1.494 2.192 1.536 1.372 2.354 2.203 1.08.003 1.696-4.5-.632-3.434-4.298-2.858-.892-2.9 1.094-2.058 2.446-3.347-.224-2.77-2.52-1.97.195-.414-3.402-1.763-2.62-4.593-2.23-1.635-.078-3.584-1.984-1.653.92-.924-2.21m-568.101-132.126.64 2.782-3.415-1.402-1.412-1.66-4.506-3.433 1.447-1.28 3.445.778 1.728 3.06m600.217 226.747 4.985-.69.168 3.787-1.044 2.27-2.077 1.994-1.82.065-1.276-1.774-1.91-6.12m78.398 183.988v114.282l-2.217 1.308h-795.783v-115.59l2.08-.117 5.22 2.61-.126 1.74 8.744 1.998 2.485-.135 10.468 1.3 4.32 1.067 3.168 2.18 2.024-3.555 3.493-2.11 1.988-2.088 3.424-1.94 1.174-2.966-.436-2.086.83-2.963 1.904 2.91 1.652-2.767 4.638-.07 4.626 2.69 2.116-1.346 1.56-6.167 3.44-2.74 1.6-2.294-.383-2.603 5.017-1.578 2.143-1.413 2.932-.37 3.18.654 3.255-.15 1.925-2.255 2.185-.916 2.07.396 3.028-1.255-.093-1.478 4.203-1.74 6.916-2.1 1.687.922 6.397-1.012 1.245-1.456 1.047-3.167-.76-2.367 2.825-1.225 2.397 2.85 2.717 1.694 1.89-1.448 8.65.814 1.96 1.87 2.162.455 2.033-1.655 2.697 2.062 1.99-2.043 1.897 2.46 3.984.03 3.1 1.694.144 2.334 1.558.58 1.134 2.197-.944 1.933 2.285.51 1.82-.697-.43-4.168 2.313-.478.903 2.25 1.526-.98 2.928 2.628 4.825.242 1.316-4.15-.975-1.91 1.26-1.478-.645-1.955-2.85-.846-.163-2.28 3.655.475-1.058-2.785-2.382-.005-1.187-3.457 1.415-1.117 1.022-4.71 2.737-1.26 4.27.246.898-1.247 2.06 1.117 3.306-.422 1.475 1.63.584 2.996 1.923-.01 4.585 1.36 2.772-.932 1.2 1.67 1.97-1.158 3.447.707 1.587 1.634 2.125.105 2.677 2.345 1.343 2.456 2.28.1 3.647 2.562 1.668-1.08.42-4.02 1.053-1.69 2.202.08 2.073 2.547.77-2.8-1.992-4.182 3.564-.262 2.31 1.332 1.938 2.286 3.17.24.076 1.314 5.16.58-2.65-5.48.8-1.245-1.73-1.695-2.82.242-1.218-1.174.715-2.617 4.112-1.502.716-1.77-1.5-2.044-1.61 1.418-4.53 1.045-.417-1.032 3.104-1.376.555-1.208 2.752.01 2.703-2.064.5-7.668 1.257-1.292 2.65-.52 2.458 5.263.533 3.227 1.426-.09.27-2.645-1.132-1.892 3.36-.276 1.064-2.258-.796-2.982.923-1.166-.07-4.832-1.695-1.772 2.312-3.12 1.8.366.06-3.02 2.772-1.03.794-4.3 5.287-2.96 3.1-3.52 1.97-.11 1.045-1.725 3.354-1.563.62 1.228-2.464 1.23-1.423 3.182-3.303 1.136-1.762 2.16-1.29-.028-.92 2.547 3.472 3.816 1.25 3.615-1.445 1.564.07 3.247.908 2.274-1.004 6.046-2.168 2.736 2.83 7.264-.628 1.973 1.19 5.905-.272 2.634 1.476 2.697-1.072 6.2-1.926 5.152.794 2.51-1.6 2.318.506 1.878 2.473 2.386 5.163 3.265 5.36 4.01 3.246 3.256 3.822 5.027 4.432 3.9 1.803 4.306 2.11 1.496 4.682.725 2.834 1.63 1.966 1.93 5.687-3.17 2.11.084 1.43 1.454 8.763 2.298.68-.35.884-4.292 3.31-4.59 6.145-4.173 4.587-5.138 4.99-2.514-.514-2.457-1.99-1.698 2.93-1.558 2.006-2.372.516-2.298-.224-3.776-1.043-2.27 1.622-2.15 2.905-.555 3.143 2.99 2.935-2.352 1.343-5.098 2.828-4.547 5.698-1.47 3.438-2.578 4.78-1.575 1.757-1.258-.6-2.212 3.472-3.158 5.773-3.04 2.283-.014 4.79-1.147 3.703.357 3.226-1.353.85-2.74 2.84-1.196 1.62 2.367 4.318 1.485 2.804-.7 2.3.99 2.025-1.25 5.27-.13 2.292.645 2.53-1.258 5.71 1.128 2.37-3.46 3.373-.286 1.546 1.376 3.798.04 2.217 1.176 2.924-1.094 2.603.53 1.546 2.06 2.348-.37 3.466 1.727 1.444-2.228 2.086.685 4.31-1.214 2.16-1.208.513-2.117 3.313-2.216 3.608.543 1.686-2.78 2.39.2 2.08 2.033 3.247 1.81 1.01 1.488 2.3-1.353.21 3.53 1.386.277 1.36-3.242.718-3.658 4.527-2.685 2.28-1.91 3.386-.74.65-1.154 3.542-.982.08-1.79 3.61 1.924 2.558-1.475-1.808-1.323 1.687-1.46 1.964 1.575.827-4.484 2.97-1.687 4.648-1.105 3.1.407 2.496 2.606 2.062.872.725 2.444 3.598 2.128 3.684.33 3.957 1.397 2.982-.774 4.746 1.39 6.13.656 1.643 1.632 1.637 3.323 3.82-1.4 1.78.34 2.076 1.7 1.38 2.718-1.06 2.96 4.248-1.163 1.73-1.692 2.634-1.265-.073-2.378 2.636-3.072 4.836-1.942.288-1.96 1.62-1.762 5.083-1.225-1.206-1.875 2.773-.637 2.056-1.447 2.67.585 5.107 2.72 5.447-2.054 1.675.783 4.896-.86.975-1.363.292-5.33 2.05-1.533 1.364.938-.272 2.773 2.956.78 1.82-1.447 2.72.763 1.617-1.507 3.22 2.708 2.227-.96.895 1.362 3.574 1.6 5.45 1.74 1.667 1.91 4.437-2.852.467-1.986 5-1.542 3.38 3.527 3.96.93 2.064 2.358 7.237-.478 2.736-1.977 1.44 1.455 8.053-3.154 2.65 1.742 1.05 2.606 3.15-.17.93-3.135 1.39-1.874 3.236.796 2.827-.792 2.443.648 1.166-1.038 8.953 3 9.017 2.51 1.41-.993 5.383 2.68 1.325 3.217 2.904 1.153 2.395 2.373 10.932-1.15 1.87 1.44 1.615 2.82 2.11-.1 1.023 1.255 4.858.946 1.694 1.41 3.078 4.12 2.1 1.282 1.408-.468 1.124 2.53 2.068-1.21 4.937.657 2.358 1.1 1.743 2.913 2.886 2.38 2.548 1.324-1.784 3.977.87 2.357-2.348 6.42-2.38.14-3.334 1.57-3.28 3.253.18 4.05-1.22.214-2.07 2.495.172 3.638 3.392.85-.025 1.54-5.118-.842-.79 4.172.645 7.25-1.246 2.828 1.655.298 1.536 4.564-.41 1.664 6.572 2.752.676-2.408-1.774-1.41 2.185-2.023 4.62 1.023 4.71-.763 9.525 1.34 4.033 2.296m-138.215-294.143.995-.5 2.433-3.655 2.25.464 3.012 2.437-3.42 2.95-.21 1.89 1.6 2.1-.08 3.064-1.027.965-.248 2.9-1.99 1.3-.027 2.013-1.346 2.83-7.607-.364-2.502-1.195-2.422.162-1.218-4.385-1.023-.214-1.034-3.815 1.102-2.504 3.672.82 1.41-2.823 2.773-.566 2.454-3.317m130.695 118.681-3.764 1.545-1.358 4.302-1.913 2.335-2.058.62-5.315-2.18.793-2.13 3.505-4.08.952-.114 4.517-3.45 1.33-3.213 2.74-3.053 2.46.714 1.05 2.278-3.232 4.183m-348.383-198.224-.975 1.438-.213 3.005-1.38-.31-4.587-2.83m261.971 13.746-1.656-2.114 4.147-.117.608 1.738-1.414 3.962-2.657-.966m24.046-14.745-1.415 5.73-4.037.215-2.762.8-4.255 3.25-1.43-3.152-7.707 2.273-.902-.486 5.076-3.93 4.594-.602 3.066-2.315 3.606-1.534 2.516-2.59 1.453-3.74-.363-1.63 1.07-3.698 2.152-.312 1.657 5.478-2.508 3.91m5.128-11.127-2.97-1.914-3.955 1.716-.657-1.827 3.55-2.168 1.136-6.818 3.436 3.896 2.9 1.073 1.16 1.788-2.834 1.248m-447.925-19.263-.495-1.077 3.398-7.026 2.177.728-.932 3.304 1.16 2.502 3.453-.156.968 4.384-.433 1.564 2.66.69-1.006 2.756-2.144-.508-1.71-1.935-1.21 1.69-1.496-2.69-1.744.532-5.708-1.186m-163.112-20.542-.044-1.642 2.716.395-.467 3.096m401.865-72.79-2.363-.616.238-2.372 2.223-1.456 1.73 1.42m170.942 234.712-4.26 1.88-2.007 1.916-1.62-1.21 4.827-2.594m34.246 18.606.807-3.794-.424-2.474 1.445-6.694 1.463.21 1.68 4.006.527 3.557 1.632-.537 1.597 2.23.37 2.986 1.65 2.816.68 3.33 5.092 2.798 2.118 5.07 2.487.696.09 1.923 2.227 1.68 2.85 4.353-.29 3.058 1.232 2.696-2.36 10.767-1.228.547-2.31 4.432-1.72 4.262-.382 4.458-4.865 1.27-1.886 1.804-2.257.78-2.648-1.975-2.68 1.94-2.523-1.444-2.14.057-2.288-1.325-1.36-1.96.063-2.008-2.99-3.08-2.196-1.195.334-2.776-5.162.383-2.09-2.183-1.457-2.877-3.104-.193-2.53-1.484-4.607.55-4.054 1.57-2.804.03-3.645 1.815-1.684 2.534-7.783-.02-4.705 2.993-2.86.028-3.5-2.077 1.396-2.646.01-4.29-1.39-2.98-.132-2.587-1.826-3.496-1.193-3.735 1.39-1.113-1.896-4.122.578-4.49 1.69-.14.767-1.867 4.48-2.894 2.007.273 7.23-2.504 3.1-3.522-.475-1.797 3.137-2.713 1.856.345 1.093-2.81 2.574-2.492 2.88-.275 2.656 1.977 1.783-.792 2.74-4.606 7.39-1.453 2.868 1.23 3.72.196-3.347 5.387 2.855 2.438 5.144 2.492 2.305 1.924 1.73-.584m-134.738-53.297-.64-3.846 1.034-4.136 1.327 1.22 2.163 3.797-.207 2.49-2.435 1.264m-67.9 42.983.738 5.835-1.72 4.21-4.274 14.466-1.076 2.867-4.325 1.566-2.513-1.52-.567-3.705-1.2-2.864.615-2.112 2.218-3.225-1.258-6.005 2.237-2.985 2.55-.763 3.76-2.872 2.627-3.833m-106.172-163.553.672 2.235-2.49 1.433-2.64-.364-7.658 1.662.41-2.93-.617-1.9.752-2.12.04-3.353 2.398-.764.332-1.86-2.423-3.157-2.388-1.006.382-3.085-1.814-.585-.363-6.216 1.913-4.707 3.966 1.354-.274 2.434 3.374.486-.875 2.977-2.124 3.288 2.313.612 1.116 1.38 1.024 3.533 1.266.61 2.517 5.67 2.56.924m209.409 128.95-.2-2.598 3.124.107 1.703 2.32 3.334 2.302 1.792 2.243 3.53 1.764.78 1.362 2.665.983-.647 2.152 2.157.902.987 2.805 1.734.122 1.036 1.914-.383 3.1-1.124 2.17-1.873.54-5.06-4.23-3.08-3.636-2.536-5.08-1.283-.585-1.563-3.906-1.775-.922-1.463-2.542m-316.405-330.453-4.293-4.044-1.382-5.246 3.356-.013 2.56 2.645 1.12 3.197-1.625 1.978m-.066-13.167-1.993 1.76-1.696-1.975 1.986-2.39m-12.812 17.826-1.015.866-2.69-2.5 1.7-.85m257.92 22.191-1.116-1.91 1.906-2.555 1.536-.014.365-2.743 2.126.336.076 3.92-1.838 1.998m-16.502 4.893.17 3.592-1.793.18-.637-3.184m2.311-1.985 4.222.415-3.41 3.513m-8.646.311-2.29-.648 1.482-2.54 1.9 1.904"/><path d="m246.988 574.462-1.384-1.253 1.642-3.832 1.727 1.58m-17.113 15.811 2.206 1.344-1.386 1.354-1.783-1.062m16.198-74.409-5.15-.197.04-2.137 2.138.198-1.287-3.55 1.922-3.14 1.846.09.466 2.19 2.706 3.373 4.383 3.35-2.622.507m251.79-458.613.365-2.813 2.313-.294 1.966-1.485-.094-3.775 3.193-1.435 2.756 2.48-2.054 2.41-4.424 2.082.055 2.79-2.254-.997m14.861-10.053 3.333-.43 1.862 2.425-1.92.495m.143-6.781 1.782-1.547 2.01 1.423-3.344.992m11.474 2.157-1.008 2.355-2.197-.69 2.3-2.272m-477.615 169.855-.58-1.87 2-1.583 2.674-.07.438 1.754m407.406-154.492 2.985-2.53 1.153 2.086m135.879.241-1.838 1.73-2.915-1.857-1.903-2.433 2.855-1.88-.65-3.27 1.243-3.414 3.747-1.903 1.975-2.597 3.257 6.043 1.734 2.4-1.92 1.304.356 4.592-3.334.213m-5.546 5.841-4.613-.952.44-2.78 4.093.614 1.33 1.245m10.5 13.213-2.265-.06-2.56-2.38-3.01-.07-1.558-2.497-.11-2.915-1.177-2.22 2.04-1.962-.803-1.94 2.527-1.652 3.1-.075 5.278.806 1.847 3.47-.726 2.776.46 7.394m6.921-1.333 2.184-1.074 1.007 3.3 1.68.7.236 3.3-1.14 2.03-3.563 1.144-4.478.385-2.66 2.362-1.48-.777 1.652-3.565.472-3.412 2.85-7.964 1.473-.885 2.022 1.342m-394.098 429.453-1.965-2.498 1.485-.702m256.413-120.876-4.69 8.98 1.553 1.892-.548 3.09 1.29 3.87 1.593 1.15-.338 1.892.317 4.95.692 2.906-2.043 3.736-1.865 1.412-4.305 1.904-1.89 2.46-2.896 2.17-.697 1.42 1.898 4.23.16 1.913-.963 3.874-5.15 2.473.09 3.522-1.13 3.928-2.726 2.723-2.483 4.234-3.32 3.414-4.525 3.1-3.624 1.153-5.032-.558-6.498 2.04-2.535-2.426-1.332-2.357.744-3.205-2.095-3.62-1.02-3.2-3.377-4.458-1.85-8.276-.153-4.047-2.162-3.348-3.72-7.73-.01-3.908 1.23-2.63.583-3.065 2.443-2.662.474-2.775-1.922-4.315.878-.795-1.254-3.93-1.215-1.865-1.172-3.663-4.106-4.016-2.452-4.087 1.107-1.054.145-3.435 1.364-4.277-2.413-3.326-4.564-.04-1.64.735-3.304-4.5-5.535-.08-3.852 1.2-5.483 2.298-4.138-1.113-4.147.488-3.45 1.452-4.195-1.706-1.725-1.712-5.375-3.287-1.486-1.99-1.382-3.496-2.263-2.465-4.338-3.342.53-2.645-1.32-3.075 1.333-2.122 1.125-4.976-1.086-3.202.682-1.99-1.61-2.294 2.963-6.932 1.568-1.598.906-3.63 1.9-1.26 1.557-3.162 3.125-.893 2.858-2.538 1.22-1.982-.39-3.36 1.236-3.01 1.457-1.663 4.083-2.445 1.894-4.593 2.778 1.586 6.02.357 1.728-1.383 5.597-2.66 7.493-.915 1.23.675 4.42-1.186 1.403.62 3.91-1.385 1.92 1.624-.108 2.082 1.4 2.12-2.183 3.642 4.812 2.75 2.064-.204 4.514 1.562.573 1.877 3.927 1.342 4.184 2.107 2.144-2-.432-2.474 3.89-2.49 3.08.806.327 1.132 3.867.637 8.91 2.956 4.687-2.01 2.592.95.008 2.318 1.243 4.486 1.593 1.828.96 3.086 3.46 6.18.258 2.84 2.654 2.044 1.19 7.62 2.524 2.01 1.986 5.706 3.825 2.07 4.938 5.77-.587 1.126 2.54 2.64 6.905-1.693 8.224-.717-.03 2.41-2.175 5.018-4.805 8.304-4.318 4.54-3.75 2.343-3.86 3.744-2.822 3.652m-112.412-143.523-1.4-1.39.762-3.487 3.123-3.227 2.11-.816 2.64.547 1.33 3.49-1.83 1.58.82 3.49-.996 2.402-2.627.808-2.4 1.85-2.167.14-1.312-1.334m60.005-139.248-1.056 2.246-2.798-5.03-1.53-.667-1-3.474 2.364-.434.142-2.406-2.398.808-.844-3.48 3.14-1.05 1.718-2.1-2.762-1.416-1.95 2.984-1.615-1.24-2.92-4.886.293-.768-1.963-5.91-.442-2.795 1.264-2.806 3.037.25.213 1.997 2.516.822 1.456-3.28 1.06.845 3.668-3.004 2.14.98 2.428 4.088.57 4.252 1.782.872 1.766 2.936 2.153.545-.317 1.872-2.406-.028-3.056 1.906.45 3.037-1.568 2.09-.323 5.572-1.223.414-.897 5.116m258.876 194.279-2.494 4.225-1.427-1.886 1.058-1.367m-348.743-160.535 2.7-1.214 3.195 1.21-1.54 1.577-1.215-1.328"/><path d="m347.145 127.36 1.73 1.897-.15 3.12-2.948-2.182-1.143-2.728m-2.682-2.604 1.068-1.745 3.13.332-1.255 2.632m6.253-11.036 2.308.092.8 1.953-2.47.636m296.981 266.129 1.335 1.248 2.593.053-.27 1.84-8.022-.958-3.553-1.154-1.784.287-3.937-.91-1.425-2.98 5.17.367 1.187 1.287 3.795.27.567-1.078m-233.618-183.454-.777-3.963 1.032-4.27 8.697-6.69 2.743-4.555 2.515-1.758 1.357-4.408 1.103-1.89.843-3.64 4.055-5.465.785-3.224 2.09.662.578-3.68 1.888-1.083 1.61-3.986 2.01-1.717 2.873-1.053 2.623-.13-.898-2.032 4.596.048 3.872-4.34 4.704-.32 2.507-1.15 2.526 2.677 1.756.038 1.916 2.506-3.126 2.167 4.023 1.848 1.35-1.632 1.728 2.41 4.665 2.308 2.095.15 3.71 2.786 1.94 2.418 3.186 1.753 2.58 2.333.686 3.714-2.97 4.103-3.9 1.072-5.965-1.778-1.425-1.16-2.71 1.024 2.287 2.42.14 4.758.725 3.488 2.524 2.05 2.64 1.12 1.265-.766-.49-2.196-1.507-.174-1.288-2.25 1.11-1.75 5.55 3.24 1.267-2.76-.5-2.922 3.65-2.68 1.745-2.13 2.093.53 1.556 1.73 1.256-4.457-1.65-1.683.786-3.18-.112-4.682 3.813.38 1.594 2.527-2.588 1.957-.97 2.183 2.437 2.92 3.84-1.023.186-3.297 1.385-.322 4.78-3.842 6.517-3.846.845 3.18 2.34-.12 2.247-1.376 2.947.675 3.406-2.72 2.07 2.17 2.576-2.09-1.722-3.72 1.568-1.918 4.264.935 3.385 1.438 1.906 1.743 4.103 2.437 1.587 2.167 1.808.61 1.253-3.6-2.26-1.614-.01-1.918-2.938-1.217 1.395-6.62-1.79-.923.69-2.89 3.023-2.642 1.603-7.54 1.215-1.223 4.543-.248 2.274 1.184.406 3.525-1.142 3.95-1.05 1.267 2.124 4.67-.785 3.582.483 3.136-.42 4.338.577 1.95 1.88 1.923-1.132 1.834.052 2.83-1.19.696-1.676 3.68-5.94 1.976 2.798 1.594 3.133.492 1.514-1.977 3.105-2.35.564-2.478 1.444-1.853-1.057-3.563.556-2.28 4.507-1.387-1.277-1.746-2.704 1.065-2.265-.563-.55-3.647 1.52-6.28-1.51-3.587-1.155-1.097 1.305-3.12 4.658-3.22-.987 3.934 3.425-2.3 2.196 1.715.954-.85-.77-2.693 3.72-.244 4.705 4.612 2.272-.48-1.072-3.752-3.226-1.64-.43-7.983 6.547-.68 5.718-1.705 2.45-.045-1.435-4.983 1.775-3.78 2.77-3.42 5.085-2.96 5.255-1.41.918-2.722 5.18.04 2.84 1.45 3.242-2.388.213-2.322 3.255.104 1.646-.87-.33-3.104 2.56-4.775 2.657-2.965 2.527-.245 3.38 1.45-.91 2.844.62 1.43 3.394 1.223-1.63 4.606 2.83-.38.146-1.9 5.48-.126 2.69.752 4.07 4.81.988 2.813-.532 4.743-4.155 5.653-4.192 2.618-3.87 5.444-2.143.394-2.19 3.733 3.445-.192 1.113-1.078 3.348-1.1-.52-3.01 1.71-1.59 2.937 2.056 4.022 1.014 3.365.184.822-.767 4.37.998 2.895.122-.26 2.982 1.397.727 7.77 1.83 2.23-2.593-.72-2.813 2.47-1.886 2.754 2.488 1.83.628 2.868-.616 2.483 2.167-1.434 2.97-1.935.716.58 2.522 1.873 2.32 1.085 3.26 2.808 4.422 2.348 1.453.934-1.66 1.803-6.276 2.45 3.025 1.606.548 2.793-1.912 2.718.716 1.48 1.418 1.31-1.544 3.717-.714-.158-2.753-1.302-1.518.93-1.7 1.98.112 3.797-1.78 5.072.593 3.178 1.055.35 5.15 2.326-3.764 2.833-.17 3.423 2.176-.063 2.538 3.89 2.664 1.776 3.1 2.79-.21 4.756-1.444 5.707.76 2.542 1.802 1.127 2.834-.805 2.87 3.912 2.985 2.046-1.928 3.793-.574.948 1.048 5.136.773 1.94-1.94 1.335 3.55 2.33.99.503 1.727 3.09-1.717-.96-3.433.88-3.193 4.007 1.118 8.07 1.15 5.424 2.286 2.48 2.537v22.372l-3.63 2.1 1.127 5.962 1.69 3.78-1.317 1.7-4.243-.99-6.477 3.54-3.757 2.888-1.038 1.526-3.097 1.947-5.142-.815-2.646 1.05-1.898-.522-2.512 1.983-2.926-.034-3.766 7.304-.316 1.434 2.735.8-.96 4.295 1.273 2.31-2.765.382-.782 3.106.808 2.18-3.4 1.08-1.34 1.33-.168 3.226-3.335.927.383 2.283-1.493 2.727-2.98 1.232-2.212-15.188 1.247-5.748 3.125-4.16 3.337-2.455 1.828-3.082 4.38-4.507.8-1.638 2.648-1.275 1.21-1.92.982-6.95-2.446.81-.974 3.848-.91.2-3.625 4.345-1.192-.03-.863-4.465-1.47-1-3.77.602-1.832 1.263-.04 1.48-5.42 5.962 2.08 3.044-8.33 1.462.832-2.142-4.822-1.84-1.52 2.267-3.283-.12-2.03-.862-7.27.427-2.546 1.46-2.884 3.1-.64 1.933-2.894 2.36-3.25 4.558-4.99 4.266-.468 1.22 3.306 1.254-.048 2.365 1.308.956 2.607-.012 1.55-2.44 2.23.488 2.625 3.004-.578 3.13.864.866-2.24 4.61.107 4.518-.826 3.78-2.02 2.142-2.577 5.094-4.933 5.77-1.86 2.852-4.183 2.418-3.223-1.455-3.736 3.45-.682 3.488-4.868 3.21-.31 1.352 2.21 1.883 2.202 3.854.186 4.806-4.663 2.77-1.913.242-.385-2.306.856-1.665-.317-5.425-3.237-.226-.493-1.27 1.215-2.754-2.633-1.78-5.615 2.32-.51-1.83 1.76-2.228-2.282-1.093-1.728 2.02-1.965.847-1.403 2.234-2.92 1.577 3.53 2.49 1.222 1.585 2.643-1.93 2.258 2.426-2.816 1.523-3.327 4.255 2.406 1.435 2.434 4.976-.238 1.435 1.57 2.49-1.357 1.49 1.387 1.342-.736 3.586-1.23.575-4.33 7.563-5.856 5.314-3.923.4-1.246 1.163-8.274 2.56-4.144-1.13-3.727 1.713-2.078 2.5-.696 2.406 3.444 4.637 3.57 3.486 1.453 5.716-.504 2.61-4.382 3.09-1.604 1.8-4.003 2.086.784-3.052-3.52-1.38-1.885-3.526-3.78-2.916-1.938.1-.09 2.798-1.938 4.172 1.692 2.8 1.312 3.963 5.78 4.326.85 2.366-.09 3.25 1.764 2.694-3.413-.443-2.723-1.853-2.04-3.625-1.014-4.852-1.87-2.6-2.335-2 .557-4.67.802-2.74-.526-2.994-1.654-3.563-1.465-5.304-3.733 2.91-2.853-.686.75-3.884-1.042-3.82-4.486-4.302-1.288-3.768-1.55 1.665-2.585-.91-5.52 2.26-1.566 3.54-3.54 2.023-1.513 1.968-3.994 2.907-.21 1.214-4.385 2.05-.433 1.23.65 4.193-1.112 2.975.085 3.772-1.108-.025-4.06 5.03-2.72-3.102-1.094-3.723-2.217-3.918-.493-2.342-2.435-4.752-1.894-9.07.537-1.76-1.744-1.486-3.687.833-3.31-3.325-.806-4.75-5.093-3.073-8.787.793-7.137-.635-3.905-.93-1.193-3.368-4.85 1.593-1.966-.528-2.792-2.27-2.42-.927-2.843-5.533-4.538 1.043.244 1.937 5.315 9.77 2.825 2.675 4.435-.18 3.773-3.654 3.63 3.95 3.542 1.082 2.3 3.044-3.04 4.465-1.255.202-.072 2.978-1.797.342-1.498 2.183-1.83.136-1.01 1.918-2.273.108-3.455 1.28-.584 1.854-6.917 2.54-.935 1.104-4.412 1.417-2.34.203-1.33 1.327-3.418-.147-2.603-10.6-1.337-1.12-2.595-4.788-1.81-1.035-1.738-3.656.292-1.56-1.767-3.286-1.728-.837-1.186-3.233-4.23-6.224-1.79.898-2.28-2.103-1.9-4.65-.123-1.755 3.796-.305 4.355-8.77-.01-4.017-2.738-2.208-1.72 1.537-2.59.654-3.345-2.204-1.593.06-1.652 1.73-1.63-1.406-2.375-.307-1.79-1.548.126-1.688-2.518-4.277 1.362-2.744 4.493.022 1.357-2.404 3.03.38 5.722-2.767 5.786.857 5.34 2.43 3.92-.01 2.09-.907 1.57-1.89-.75-2.642-2.567-1.35-3.303-3.366-3.118-1.485 1.3-4.027-.96-3.38-3.556 1.36-3.307 2.09 1.995 3.307-2.696 1.678-4.925-7.06-2.558.896-2.144 2.95-.39 1.917-2.144 1.606-.067 2.424-2.163 2.924 1.416 3.233-4.205 3.79-1.017-1.878-3.373-.254-1.118 1.58-2.873 1.108 1.113 1.48-.016 7.656-3.068-.073-.39-2.113-1.826-4.177-2.967-4.836.348-3.3-5.847-4.707-3.823-2.413-.702-2.86-2.164.926-1.383-2.854-1.87.903-.07 3.69 2.58 1.94 1.028 2.772 1.65 1.864 2.998.444-.188 1.505 2.36 2.682-1.907 4.58-.96-2.762-1.87-.974-2.45-2.75-2.678-.81-4.707-4.47-.586-2.873-3.3-1.7-4.67 3.854-5.88-1.137-2.1 1.858.43 2.964-2.568 2-2.413.693-2.903 4.482.39 1.476-1.702 4.023-2.68 2.3-5.034.026-3.636 1.492-2.232-2.837-4.196.267.343-3.007-1.303-3.315 1.604-4.854-.444-4.892-.71-1.568 2.812-1.77 1.628.64 12.23.454.738-2.27.552-5.983-2.036-3.156-4.258-2.65-1.886-2.356 3.7-.904 3.416.612.94-2.463 2.125.247.81-1.46 2.947-1.716.107-2.302 3.534-1.63 2.066-2.356 2.058-3.426 1.865-1.68 2.54-.358 4.006-2.025-.47-5.396-1.212-.518.09-3.785 2.6-1.935 2.244.04.753 3.255-1.82 2-.723 2.147 1.185 2.188 2.362 1.344 3.122-1.053 2.913 2.356 5.262-1.72 2.355-1.624 2.392-.39 2.366 2.182 4.1-2.683-.423-7.405 1.52-3.056 1.664-.656 2.626 3.194 1.627-1.265-.325-4.173-1.154-.358-.562-3.633 1.88-.932 4.27-.71 3.654.81 2.733-3.345-2.286-1.622-2.12.02-8.874 2.818-.63-1.36-3.378-2.228.487-2.928-1.057-6.373 3.492-5.6 1.64-.646 4.067-6.115.24-1.765-2.588-1.983-4.126.135-2.64 5.455.746 2.182-1.78 2.847-4.565 3.19-2.46 4.25-.715 2.907.576 4.668 2.285 1.36 1.144 2.11-1.995 2.167.854.91-3.45 2.357-.472 4.703-1.44 4.982-3.04.53-1.147 2.957-2.623-.095-.9-2.936.822-1.414-1.29-1.71-2.357-6.23-.264-3.036-3.28.63-2.325 2.75-2.163 1.383-4.718-2.776-.705-3.596 1.99-2.607-1.762-1.346zm94.023 55.826-2.354 2.95 2.014 2.32-.254 2.188 4.604 7.04-.723 4.297-.917.748.27 2.787 2.798 1.457 1.687 1.675 2.205.57 4.613-.646-.466-2.757.454-3.152-2.856-3.364.465-2.662-1.16-3.245-3.658-6.552 1.048-2.897 3.032-1.062 1.407-1.71-.348-2.717-4.882-.587-2.33 2.826-4.65 2.49zm-313.056-145.284v3.67l-2.335.403-2.912-1.75-1.14-3.313 1.267-2.493 3.27-.776 1.825 2.795m36.803 16.008 1.748 3.533-3.483-.31-3.232 1.117-1.9-.902-.248-2.313-1.457-.76-.04-3.746 2.815.944 3.03-.257"/><path d="m665.646 316.277-.196-2.912 1.85-2.937 2.017.018-1.067 4.128m-133.33-261.734-4.274-.772.652-4.442 1.684.28 3.534-1.16-.045 3.805m-309.725 272.133.523-1.764-6.627-3.357-3.074-.292-.393-2.372 3.094.234 6.413 2.736 4.703 2.795 1.316 2.057m20.275-145.056 1.076 2.625 1.737 1.353-.338 5.514-4.198-.853-1.753-2.004-1.464 1.287 3.002 2.49 1.554 2.15-.57 1.678-4.93-1.784-2.24-2.296-4.127-1.584.036-2.105-2.68-1.975-1.183-2.048-2.367-1.624-1.075 1.16-2.395-.576-2.41 1.242-1.995-.577-.863-3.17 1.585-2.498 5.032.945 1.35-.352 1.79-2.402-1.522-1.753 4.76-5.938-.662-3.532-5.096-6.317-3.234.776 1.652-3.384-4.182-3.943-.443-2.23-1.563-.015-.934 2.003-5.78-1.296-1.658 1.95-7.005-2.03-.964.693-2.726-1.845-3.754-1.175-1.66-3.018 2.507-.26.19-1.937-3.648-.748-.545-4.038.79-5.09 1.667-5.046 1.59-2.277 3.775-2.182 3.25.315.366 1.14-2.64 3.203-1.256 3.09 1.022 3.22-.496 1.556.762 2.958 1.32.14-.432-6.375.64-3.665.954-1.648 5.072-2.936 2.575.04.808 3.614 2.116 3.997-.998 1.356 2.663 1.743 4.336-3.3 4.983 1.827.7 2.828 1.572.343.1 2.42 1.937 2.722 1.726-2.175 2.193 1.153.915 1.71-.32 2.36 3.104.153 3.118 1.852-.97 2.052 3.35 1.256.634 2.394-2.116 1.643 2.91.928-2.202 1.825-1.367 2.49 2.38 1.04 3.372 3.58 2.79.284 1.258 3.158 1.862 1.837 1.903-.01 2.145 1.527-3.044 5.81-4.44 1.997-4.402-6.082-2.38.728 1.41 5.53m-23.632-81.622-1.763 3.302-5.603 3.103.635-2.733-.904-.726-3.516 1.156-3.14-.693-2.33 1.634-2.45-.935-4.375-.03-2.96-1.78.31-2.678 2.36-2.488 2.76-1.73-2.237-3.922.264-1.682 1.845-.84 2.415 1.082 1.034 3.75 1.913-1.11-1.743-4.292-2.336-1.79-1.682-.024-.115-3.36 1.936-4.173 5.178-1.936-.44-5.296-2.016-3.33-2.332-1.12-.09-6.63 5.354.326 4.434 5.405.932-.802-3.41-5.34 6.373-1.824 2.3-3.344-.405-1.893-3.2 2.6-4.532 1.63-4.87.407-6.633-2.323-2.525-2.392.3-1.324-2.098-1.42 2.368-6.934-3.078 2.353-.854-1.245 2.855-2.58-2.492-.69-.606 1.657-2.15-.842 2.893-4.09 2.665-.47 1.105-1.842 2.134-1.265 2.304.84.103-2.745 3.365-1.074-1.025-2.818 7.007 2.848 1.033-6.573 2.23 1.288-.296-3.974 2.554-1.873 5.1-.044.748-2.19 3.613-1.672 3.997.09 2.5.77 6.888-.316 4.36 2.746 1.867.04 2.955 1.964 2.12.556 2.207 1.85 2.643 3.275 1.884.606 1.278 2.222-.21 2.228-3.074 4.264-3.16 2.72-3.777 1.323-2 2.838 3.568-.33.743 2.178-3.064 2.425-1.13 2.416-4.69 5.404-2.39 4.28-2.95 7.21-3.528 1.407-.98 1.688-6.66 2.413.338 1.816-2.816 1.488 3.406 1.04 2.212 1.84-.81 4.963-1.72 4.233-5.522.047 1.407 3.768-2.18 3.004-1.532 3.503 2.858-.545m39.159 158.248 1.31 2.957-1.354 1.01-2.465-1.28m-27.086 218.003.53 3.32-1.926.616m431.779-139.377-1.002-2.516 1.088-1.09.308-5.405 3.044.527 1.294 2.656-2.53 4.225.828 3.043-1.496.8m11.513 10.5.74 3.784-2.69 1.08-.486 2.21-1.885-.668-1.397-3.796 2.395-2.583"/></g></g></svg>